<svg width="34" height="30" viewBox="0 0 34 30" fill="none" xmlns="http://www.w3.org/2000/svg">
<path d="M32.42 12.34C32.9333 12.76 33.2133 13.2967 33.26 13.95C33.3533 14.51 33.2833 15.1167 33.05 15.77C32.8167 16.3767 32.4433 16.82 31.93 17.1C31.4167 17.38 30.81 17.4967 30.11 17.45C29.41 17.3567 28.78 17.31 28.22 17.31H22.83C23.3433 18.15 23.8567 18.99 24.37 19.83C24.93 20.6233 25.4667 21.44 25.98 22.28C26.2133 22.6533 26.4467 23.0733 26.68 23.54C26.9133 24.0067 27.0767 24.4733 27.17 24.94C27.2633 25.2667 27.31 25.6167 27.31 25.99C27.3567 26.3167 27.2867 26.6433 27.1 26.97C26.5867 27.81 25.98 28.3233 25.28 28.51C24.6267 28.6967 23.95 28.6733 23.25 28.44C22.55 28.16 21.8733 27.74 21.22 27.18C20.6133 26.62 20.1233 26.06 19.75 25.5C19.2367 24.7067 18.7233 23.96 18.21 23.26C17.7433 22.5133 17.2533 21.7433 16.74 20.95L13.38 26.2C13.1 26.6667 12.7733 27.18 12.4 27.74C12.0267 28.2533 11.56 28.6267 11 28.86C10.3467 29.14 9.76333 29.3033 9.25 29.35C8.73667 29.35 8.2 29.1867 7.64 28.86C6.89333 28.3933 6.40333 27.88 6.17 27.32C5.98333 26.76 5.93667 26.2 6.03 25.64C6.12333 25.0333 6.33333 24.4267 6.66 23.82C6.98667 23.2133 7.33667 22.63 7.71 22.07C8.22333 21.2767 8.73667 20.4833 9.25 19.69C9.81 18.8967 10.3467 18.1033 10.86 17.31C9.92667 17.31 9.01667 17.3333 8.13 17.38C7.24333 17.4267 6.35667 17.4733 5.47 17.52C4.86333 17.52 4.25667 17.52 3.65 17.52C3.09 17.52 2.53 17.38 1.97 17.1C1.13 16.5867 0.64 15.8167 0.5 14.79C0.406667 13.7167 0.756667 12.8533 1.55 12.2C2.20333 11.6867 2.99667 11.4767 3.93 11.57C4.91 11.6167 5.79667 11.64 6.59 11.64H10.86C10.1133 10.5667 9.43667 9.54 8.83 8.56C8.27 7.76667 7.66333 6.85667 7.01 5.83C6.40333 4.80333 6.21667 3.75333 6.45 2.68C6.59 1.93333 6.98667 1.39667 7.64 1.07C8.29333 0.696663 9.01667 0.556664 9.81 0.649999C10.65 0.696665 11.4667 1.11666 12.26 1.91C13.1 2.70333 13.7533 3.45 14.22 4.15L16.74 8.14C17.3 7.25333 17.86 6.39 18.42 5.55C18.98 4.71 19.54 3.84666 20.1 2.96C20.4733 2.44667 20.8233 1.98 21.15 1.56C21.5233 1.14 22.0367 0.789998 22.69 0.509996C23.25 0.276663 23.88 0.206664 24.58 0.299999C25.28 0.346665 25.84 0.626664 26.26 1.14C26.8667 1.98 27.1233 2.89 27.03 3.87C26.9367 4.80333 26.6567 5.73666 26.19 6.67C25.7233 7.60333 25.1633 8.49 24.51 9.33C23.8567 10.17 23.2967 10.94 22.83 11.64H27.73C28.43 11.64 29.2233 11.64 30.11 11.64C30.9967 11.64 31.7667 11.8733 32.42 12.34Z" fill="black"/>
</svg>
