<svg width="780" height="255" viewBox="0 0 780 255" fill="none" xmlns="http://www.w3.org/2000/svg">
    <path d="M0 104C0 84.1177 16.1178 68 36 68H744C763.882 68 780 84.1178 780 104V255H36C16.1177 255 0 238.882 0 219V104Z" fill="#F5F5F5"/>
    <path d="M46.416 96.168C48.56 95.368 50.496 95.016 52.224 95.112C53.984 95.208 55.552 95.656 56.928 96.456C58.304 97.224 59.472 98.264 60.432 99.576C61.424 100.888 62.224 102.36 62.832 103.992C63.312 105.208 63.68 106.488 63.936 107.832C64.192 109.176 64.336 110.52 64.368 111.864C64.432 113.176 64.384 114.472 64.224 115.752C64.096 117.032 63.872 118.216 63.552 119.304C63.36 120.04 63.136 120.712 62.88 121.32C62.624 121.928 62.32 122.536 61.968 123.144C61.168 124.52 60.128 125.64 58.848 126.504C57.6 127.368 56.224 127.976 54.72 128.328C53.696 128.584 52.64 128.712 51.552 128.712C50.464 128.68 49.392 128.536 48.336 128.28C47.28 127.992 46.256 127.592 45.264 127.08C44.304 126.536 43.424 125.864 42.624 125.064C41.632 124.104 40.816 123 40.176 121.752C39.536 120.472 39.04 119.144 38.688 117.768C38.336 116.36 38.112 114.952 38.016 113.544C37.92 112.136 37.92 110.792 38.016 109.512C38.112 108.328 38.336 107.064 38.688 105.72C39.072 104.376 39.616 103.08 40.32 101.832C41.024 100.584 41.872 99.464 42.864 98.472C43.888 97.448 45.072 96.68 46.416 96.168ZM57.648 116.712C58.032 115.208 58.192 113.512 58.128 111.624C58.064 109.736 57.76 107.96 57.216 106.296C56.864 105.272 56.416 104.376 55.872 103.608C55.36 102.808 54.736 102.2 54 101.784C53.296 101.368 52.464 101.16 51.504 101.16C50.544 101.16 49.472 101.448 48.288 102.024C47.584 102.376 46.976 102.856 46.464 103.464C45.984 104.072 45.584 104.76 45.264 105.528C44.976 106.296 44.736 107.096 44.544 107.928C44.384 108.76 44.288 109.56 44.256 110.328C44.192 111.16 44.176 112.04 44.208 112.968C44.24 113.864 44.336 114.776 44.496 115.704C44.688 116.6 44.944 117.464 45.264 118.296C45.584 119.096 46.016 119.816 46.56 120.456C47.392 121.416 48.352 122.088 49.44 122.472C50.56 122.824 51.664 122.872 52.752 122.616C54.512 122.232 55.856 121.064 56.784 119.112C57.168 118.408 57.456 117.608 57.648 116.712ZM74.343 110.808C74.343 111.704 74.343 112.712 74.343 113.832C74.375 114.952 74.391 116.12 74.391 117.336C74.391 118.52 74.391 119.704 74.391 120.888C74.391 122.04 74.375 123.112 74.343 124.104C74.311 124.584 74.263 125.112 74.199 125.688C74.135 126.232 74.007 126.744 73.815 127.224C73.623 127.704 73.319 128.104 72.903 128.424C72.519 128.712 71.991 128.84 71.319 128.808C70.327 128.744 69.607 128.312 69.159 127.512C68.743 126.712 68.503 125.592 68.439 124.152C68.439 123.416 68.423 122.568 68.391 121.608C68.391 120.648 68.375 119.672 68.343 118.68C68.343 117.688 68.343 116.728 68.343 115.8C68.343 114.84 68.343 113.976 68.343 113.208C68.343 112.76 68.327 112.216 68.295 111.576C68.295 110.936 68.311 110.28 68.343 109.608C68.375 108.936 68.455 108.296 68.583 107.688C68.711 107.048 68.919 106.52 69.207 106.104C69.431 105.848 69.751 105.656 70.167 105.528C70.583 105.368 71.015 105.288 71.463 105.288C71.943 105.288 72.391 105.368 72.807 105.528C73.255 105.688 73.575 105.912 73.767 106.2C73.895 106.392 73.991 106.664 74.055 107.016C74.119 107.368 74.167 107.768 74.199 108.216C74.263 108.632 74.295 109.08 74.295 109.56C74.327 110.008 74.343 110.424 74.343 110.808ZM72.519 101.112C71.527 101.368 70.695 101.272 70.023 100.824C69.383 100.344 68.983 99.64 68.823 98.712C68.695 98.04 68.743 97.448 68.967 96.936C69.191 96.424 69.527 96.04 69.975 95.784C70.423 95.496 70.935 95.368 71.511 95.4C72.087 95.432 72.663 95.656 73.239 96.072C73.783 96.456 74.167 96.904 74.391 97.416C74.647 97.928 74.727 98.424 74.631 98.904C74.567 99.384 74.359 99.832 74.007 100.248C73.655 100.632 73.159 100.92 72.519 101.112ZM79.4246 130.968C78.9766 130.904 78.6246 130.648 78.3686 130.2C78.2086 129.976 78.1286 129.672 78.1286 129.288C78.1606 128.936 78.2246 128.568 78.3206 128.184C78.4486 127.768 78.5926 127.368 78.7526 126.984C78.9126 126.6 79.0886 126.264 79.2806 125.976C79.4726 125.688 79.7446 125.288 80.0966 124.776C80.4486 124.264 80.8326 123.752 81.2486 123.24C81.6646 122.696 82.0806 122.216 82.4966 121.8C82.9446 121.352 83.3446 121.08 83.6966 120.984C84.1126 120.888 84.5286 120.936 84.9446 121.128C85.3926 121.288 85.7606 121.528 86.0486 121.848C86.3686 122.136 86.5926 122.488 86.7206 122.904C86.8806 123.288 86.8806 123.656 86.7206 124.008C86.5926 124.296 86.3366 124.648 85.9526 125.064C85.5686 125.48 85.1526 125.912 84.7046 126.36C84.2566 126.776 83.8246 127.192 83.4086 127.608C82.9926 127.992 82.6886 128.296 82.4966 128.52C82.3366 128.744 82.1286 129 81.8726 129.288C81.6486 129.576 81.3926 129.848 81.1046 130.104C80.8486 130.392 80.5766 130.616 80.2886 130.776C80.0006 130.936 79.7126 131 79.4246 130.968ZM121.325 122.424C121.709 122.328 122.093 122.264 122.477 122.232C122.893 122.2 123.261 122.248 123.581 122.376C123.933 122.504 124.221 122.728 124.445 123.048C124.669 123.336 124.781 123.752 124.781 124.296C124.781 124.68 124.685 125.048 124.493 125.4C124.301 125.752 124.061 126.072 123.773 126.36C123.485 126.648 123.165 126.904 122.813 127.128C122.461 127.32 122.125 127.48 121.805 127.608C120.877 128.024 119.805 128.344 118.589 128.568C117.405 128.792 116.173 128.872 114.893 128.808C113.165 128.744 111.501 128.408 109.901 127.8C108.333 127.16 107.101 126.12 106.205 124.68C105.373 123.272 104.877 121.704 104.717 119.976C104.557 118.248 104.637 116.616 104.957 115.08C105.309 113.224 105.901 111.72 106.733 110.568C107.597 109.384 108.621 108.44 109.805 107.736C111.245 106.904 112.861 106.472 114.653 106.44C116.445 106.408 118.157 106.76 119.789 107.496C120.877 107.976 121.853 108.632 122.717 109.464C123.581 110.264 124.237 111.24 124.685 112.392C124.813 112.68 124.909 113.032 124.973 113.448C125.069 113.864 125.133 114.312 125.165 114.792C125.197 115.24 125.197 115.688 125.165 116.136C125.133 116.584 125.053 116.984 124.925 117.336C124.733 117.912 124.493 118.36 124.205 118.68C123.917 119 123.549 119.24 123.101 119.4C122.653 119.56 122.109 119.672 121.469 119.736C120.861 119.768 120.125 119.8 119.261 119.832C118.493 119.864 117.773 119.88 117.101 119.88C116.429 119.88 115.741 119.88 115.037 119.88C114.333 119.848 113.597 119.832 112.829 119.832C112.093 119.8 111.261 119.768 110.333 119.736C110.237 120.376 110.317 120.936 110.573 121.416C110.861 121.864 111.245 122.248 111.725 122.568C112.205 122.856 112.749 123.08 113.357 123.24C113.965 123.4 114.557 123.496 115.133 123.528C116.221 123.592 117.261 123.512 118.253 123.288C119.245 123.032 120.269 122.744 121.325 122.424ZM119.261 113.112C118.653 112.408 118.013 111.896 117.341 111.576C116.829 111.352 116.285 111.256 115.709 111.288C115.165 111.288 114.637 111.368 114.125 111.528C113.197 111.752 112.413 112.232 111.773 112.968C111.709 113.032 111.597 113.192 111.437 113.448C111.277 113.672 111.117 113.912 110.957 114.168C110.829 114.424 110.733 114.664 110.669 114.888C110.605 115.112 110.637 115.224 110.765 115.224H120.173C120.141 114.776 120.061 114.408 119.933 114.12C119.805 113.8 119.581 113.464 119.261 113.112ZM148.773 117.576C148.709 118.632 148.645 119.704 148.581 120.792C148.517 121.848 148.341 122.872 148.053 123.864C147.797 124.856 147.381 125.752 146.805 126.552C146.261 127.352 145.477 127.992 144.453 128.472C143.557 128.92 142.597 129.224 141.573 129.384C140.549 129.576 139.525 129.656 138.501 129.624C137.477 129.592 136.485 129.432 135.525 129.144C134.565 128.888 133.701 128.52 132.933 128.04C132.165 127.56 131.541 126.936 131.061 126.168C130.581 125.4 130.197 124.568 129.909 123.672C129.653 122.776 129.477 121.848 129.381 120.888C129.285 119.928 129.221 119.032 129.189 118.2C129.061 115.992 129.061 113.816 129.189 111.672C129.189 111.256 129.189 110.792 129.189 110.28C129.189 109.736 129.221 109.208 129.285 108.696C129.381 108.184 129.525 107.72 129.717 107.304C129.909 106.856 130.229 106.52 130.677 106.296C131.637 105.784 132.517 105.752 133.317 106.2C134.149 106.648 134.645 107.576 134.805 108.984C134.901 109.72 134.933 110.536 134.901 111.432C134.901 112.328 134.933 113.144 134.997 113.88C135.029 114.968 135.061 116.152 135.093 117.432C135.125 118.68 135.301 119.8 135.621 120.792C135.973 121.784 136.533 122.536 137.301 123.048C138.101 123.528 139.285 123.544 140.853 123.096C141.589 122.872 142.069 122.312 142.293 121.416C142.549 120.52 142.677 119.192 142.677 117.432C142.677 116.664 142.661 115.816 142.629 114.888C142.597 113.96 142.581 113.048 142.581 112.152C142.581 111.224 142.597 110.376 142.629 109.608C142.693 108.808 142.789 108.2 142.917 107.784C143.077 107.208 143.413 106.776 143.925 106.488C144.437 106.2 144.981 106.056 145.557 106.056C146.133 106.024 146.677 106.136 147.189 106.392C147.701 106.648 148.053 107.064 148.245 107.64C148.437 108.152 148.565 108.808 148.629 109.608C148.725 110.376 148.789 111.224 148.821 112.152C148.853 113.048 148.853 113.976 148.821 114.936C148.821 115.864 148.805 116.744 148.773 117.576ZM176.658 120.552C176.05 120.168 175.362 119.864 174.594 119.64C173.858 119.416 173.09 119.208 172.29 119.016C171.522 118.824 170.77 118.616 170.034 118.392C169.298 118.136 168.626 117.784 168.018 117.336C166.706 116.344 165.938 115.128 165.714 113.688C165.522 112.216 165.842 110.744 166.674 109.272C167.122 108.504 167.714 107.88 168.45 107.4C169.186 106.888 169.986 106.504 170.85 106.248C171.746 105.96 172.658 105.8 173.586 105.768C174.514 105.736 175.394 105.784 176.226 105.912C176.77 106.008 177.346 106.152 177.954 106.344C178.562 106.504 179.122 106.728 179.634 107.016C180.178 107.304 180.658 107.672 181.074 108.12C181.522 108.536 181.842 109.064 182.034 109.704C182.162 110.12 182.178 110.52 182.082 110.904C182.018 111.288 181.858 111.608 181.602 111.864C181.378 112.12 181.074 112.312 180.69 112.44C180.338 112.568 179.954 112.6 179.538 112.536C179.058 112.44 178.61 112.296 178.194 112.104C177.778 111.912 177.362 111.704 176.946 111.48C176.53 111.256 176.098 111.064 175.65 110.904C175.234 110.744 174.786 110.664 174.306 110.664C173.57 110.632 172.962 110.76 172.482 111.048C172.002 111.336 171.666 111.688 171.474 112.104C171.314 112.52 171.33 112.968 171.522 113.448C171.746 113.928 172.194 114.344 172.866 114.696C173.474 115.016 174.146 115.272 174.882 115.464C175.618 115.656 176.338 115.848 177.042 116.04C177.778 116.232 178.482 116.456 179.154 116.712C179.858 116.968 180.482 117.32 181.026 117.768C182.082 118.632 182.722 119.64 182.946 120.792C183.202 121.944 183.138 123.08 182.754 124.2C182.37 125.32 181.698 126.312 180.738 127.176C179.81 128.04 178.706 128.616 177.426 128.904C176.498 129.096 175.49 129.192 174.402 129.192C173.346 129.192 172.29 129.08 171.234 128.856C170.21 128.632 169.218 128.28 168.258 127.8C167.33 127.32 166.546 126.712 165.906 125.976C165.458 125.464 165.218 124.888 165.186 124.248C165.186 123.576 165.314 123 165.57 122.52C165.858 122.008 166.258 121.656 166.77 121.464C167.282 121.272 167.858 121.384 168.498 121.8C169.01 122.152 169.618 122.504 170.322 122.856C171.026 123.176 171.73 123.432 172.434 123.624C173.138 123.816 173.81 123.912 174.45 123.912C175.122 123.912 175.698 123.768 176.178 123.48C176.882 123.032 177.25 122.52 177.282 121.944C177.314 121.336 177.106 120.872 176.658 120.552ZM193.175 107.304C194.231 106.792 195.335 106.424 196.487 106.2C197.639 105.976 198.775 105.928 199.895 106.056C201.047 106.184 202.151 106.488 203.207 106.968C204.295 107.448 205.287 108.12 206.183 108.984C206.919 109.72 207.559 110.616 208.103 111.672C208.647 112.696 209.047 113.704 209.302 114.696C209.847 116.456 209.927 118.232 209.543 120.024C209.159 121.816 208.503 123.48 207.575 125.016C207.127 125.72 206.567 126.36 205.895 126.936C205.255 127.48 204.567 127.928 203.831 128.28C202.871 128.728 201.831 129.032 200.711 129.192C199.591 129.384 198.503 129.432 197.447 129.336C195.527 129.24 193.831 128.76 192.359 127.896C190.919 127.032 189.751 125.928 188.855 124.584C187.991 123.24 187.415 121.72 187.127 120.024C186.871 118.296 186.983 116.536 187.463 114.744C187.975 112.824 188.711 111.272 189.671 110.088C190.663 108.872 191.831 107.944 193.175 107.304ZM194.615 113.736C194.135 114.184 193.767 114.744 193.511 115.416C193.255 116.088 193.095 116.792 193.031 117.528C192.967 118.232 193.015 118.952 193.175 119.688C193.367 120.392 193.655 121.032 194.039 121.608C194.359 122.088 194.935 122.488 195.767 122.808C196.599 123.128 197.463 123.32 198.359 123.384C199.383 123.448 200.279 123.176 201.047 122.568C201.815 121.928 202.391 121.144 202.775 120.216C203.191 119.288 203.383 118.28 203.351 117.192C203.319 116.104 203.031 115.112 202.487 114.216C202.103 113.576 201.559 113.112 200.855 112.824C200.183 112.504 199.463 112.344 198.695 112.344C197.959 112.312 197.223 112.424 196.487 112.68C195.751 112.904 195.127 113.256 194.615 113.736ZM233.336 117.576C233.272 118.632 233.208 119.704 233.144 120.792C233.08 121.848 232.904 122.872 232.616 123.864C232.36 124.856 231.944 125.752 231.368 126.552C230.824 127.352 230.04 127.992 229.016 128.472C228.12 128.92 227.16 129.224 226.136 129.384C225.112 129.576 224.088 129.656 223.064 129.624C222.04 129.592 221.048 129.432 220.088 129.144C219.128 128.888 218.264 128.52 217.496 128.04C216.728 127.56 216.104 126.936 215.624 126.168C215.144 125.4 214.76 124.568 214.472 123.672C214.216 122.776 214.04 121.848 213.944 120.888C213.848 119.928 213.784 119.032 213.752 118.2C213.624 115.992 213.624 113.816 213.752 111.672C213.752 111.256 213.752 110.792 213.752 110.28C213.752 109.736 213.784 109.208 213.848 108.696C213.944 108.184 214.088 107.72 214.28 107.304C214.472 106.856 214.792 106.52 215.24 106.296C216.2 105.784 217.08 105.752 217.88 106.2C218.712 106.648 219.208 107.576 219.368 108.984C219.464 109.72 219.496 110.536 219.464 111.432C219.464 112.328 219.496 113.144 219.56 113.88C219.592 114.968 219.624 116.152 219.656 117.432C219.688 118.68 219.864 119.8 220.184 120.792C220.536 121.784 221.096 122.536 221.864 123.048C222.664 123.528 223.848 123.544 225.416 123.096C226.152 122.872 226.632 122.312 226.856 121.416C227.112 120.52 227.24 119.192 227.24 117.432C227.24 116.664 227.224 115.816 227.192 114.888C227.16 113.96 227.144 113.048 227.144 112.152C227.144 111.224 227.16 110.376 227.192 109.608C227.256 108.808 227.352 108.2 227.48 107.784C227.64 107.208 227.976 106.776 228.488 106.488C229 106.2 229.544 106.056 230.12 106.056C230.696 106.024 231.24 106.136 231.752 106.392C232.264 106.648 232.616 107.064 232.808 107.64C233 108.152 233.128 108.808 233.192 109.608C233.288 110.376 233.352 111.224 233.384 112.152C233.416 113.048 233.416 113.976 233.384 114.936C233.384 115.864 233.368 116.744 233.336 117.576ZM255.364 108.792C256.324 108.312 257.332 107.976 258.388 107.784C259.444 107.56 260.484 107.512 261.508 107.64C262.564 107.736 263.572 108.008 264.532 108.456C265.492 108.872 266.388 109.48 267.22 110.28C268.052 111.112 268.692 112.024 269.14 113.016C269.588 114.008 269.908 115.112 270.1 116.328C270.228 117.16 270.436 117.928 270.724 118.632C271.012 119.336 271.316 120.04 271.636 120.744C271.988 121.448 272.308 122.152 272.596 122.856C272.916 123.56 273.172 124.296 273.364 125.064C273.524 125.8 273.46 126.52 273.172 127.224C272.916 127.896 272.372 128.312 271.54 128.472C271.06 128.568 270.596 128.536 270.148 128.376C269.732 128.184 269.348 127.928 268.996 127.608C268.644 127.256 268.324 126.888 268.036 126.504C267.78 126.088 267.54 125.704 267.316 125.352C266.58 126.312 265.78 127.064 264.916 127.608C264.052 128.12 263.012 128.456 261.796 128.616C260.772 128.744 259.796 128.776 258.868 128.712C257.94 128.648 256.948 128.472 255.892 128.184C254.516 127.832 253.38 127.224 252.484 126.36C251.62 125.464 250.948 124.44 250.468 123.288C250.02 122.104 249.78 120.84 249.748 119.496C249.716 118.152 249.876 116.824 250.228 115.512C250.676 113.784 251.348 112.376 252.244 111.288C253.14 110.2 254.18 109.368 255.364 108.792ZM256.564 114.408C256.116 114.856 255.764 115.384 255.508 115.992C255.252 116.6 255.092 117.24 255.028 117.912C254.996 118.584 255.06 119.256 255.22 119.928C255.38 120.6 255.636 121.192 255.988 121.704C256.308 122.152 256.852 122.536 257.62 122.856C258.388 123.144 259.188 123.32 260.02 123.384C260.98 123.448 261.812 123.192 262.516 122.616C263.252 122.04 263.796 121.32 264.148 120.456C264.532 119.56 264.708 118.616 264.676 117.624C264.644 116.6 264.372 115.672 263.86 114.84C263.476 114.232 262.964 113.784 262.324 113.496C261.716 113.208 261.06 113.064 260.356 113.064C259.652 113.032 258.948 113.144 258.244 113.4C257.572 113.624 257.012 113.96 256.564 114.408ZM310.61 98.04C311.826 99.16 312.722 100.504 313.298 102.072C313.874 103.608 314.098 105.144 313.97 106.68C313.842 108.152 313.378 109.512 312.578 110.76C311.778 111.976 310.562 112.904 308.93 113.544C307.65 114.088 306.386 114.472 305.138 114.696C303.89 114.92 302.514 115.096 301.01 115.224C300.338 115.288 299.762 115.336 299.282 115.368C298.834 115.368 298.306 115.384 297.698 115.416C297.57 115.416 297.346 115.416 297.026 115.416C296.738 115.416 296.53 115.432 296.402 115.464V125.4C296.306 126.008 296.178 126.632 296.018 127.272C295.89 127.912 295.522 128.408 294.914 128.76C294.562 128.952 294.13 129.064 293.618 129.096C293.106 129.128 292.642 129.112 292.226 129.048C291.778 128.984 291.394 128.872 291.074 128.712C290.786 128.52 290.546 128.2 290.354 127.752C290.226 127.464 290.098 127.144 289.97 126.792C289.874 126.408 289.826 125.944 289.826 125.4V98.856C289.826 98.632 289.842 98.424 289.874 98.232C289.906 98.04 289.938 97.848 289.97 97.656C290.034 97.496 290.082 97.32 290.114 97.128C290.146 96.936 290.194 96.76 290.258 96.6C290.322 96.44 290.386 96.296 290.45 96.168C290.546 96.04 290.658 95.928 290.786 95.832C290.946 95.672 291.186 95.528 291.506 95.4C291.858 95.272 292.37 95.208 293.042 95.208H293.138C294.13 95.144 295.234 95.096 296.45 95.064C297.666 95 298.674 95.016 299.474 95.112C299.922 95.176 300.338 95.224 300.722 95.256C301.106 95.256 301.474 95.272 301.826 95.304C302.21 95.336 302.594 95.368 302.978 95.4C303.362 95.432 303.746 95.48 304.13 95.544C304.45 95.608 304.738 95.656 304.994 95.688C305.282 95.72 305.57 95.768 305.858 95.832C306.114 95.896 306.386 95.96 306.674 96.024C306.994 96.088 307.282 96.2 307.538 96.36C308.21 96.552 308.77 96.792 309.218 97.08C309.666 97.368 310.13 97.688 310.61 98.04ZM307.73 105.96C307.762 105.192 307.602 104.52 307.25 103.944C306.93 103.368 306.466 102.888 305.858 102.504C305.25 102.12 304.562 101.816 303.794 101.592C303.026 101.368 302.258 101.208 301.49 101.112C301.298 101.112 301.026 101.112 300.674 101.112C300.354 101.08 300.002 101.064 299.618 101.064C299.234 101.032 298.866 101.016 298.514 101.016C298.194 100.984 297.938 100.968 297.746 100.968C297.586 100.936 297.394 100.92 297.17 100.92C296.946 100.92 296.69 100.92 296.402 100.92C296.434 101.912 296.45 102.872 296.45 103.8C296.45 104.696 296.45 105.672 296.45 106.728C296.418 107.304 296.402 107.88 296.402 108.456C296.402 109.032 296.402 109.592 296.402 110.136L299.378 110.088C300.146 110.088 300.994 110.04 301.922 109.944C302.85 109.848 303.73 109.656 304.562 109.368C305.394 109.08 306.098 108.664 306.674 108.12C307.282 107.576 307.634 106.856 307.73 105.96ZM336.086 117.576C336.022 118.632 335.958 119.704 335.894 120.792C335.83 121.848 335.654 122.872 335.366 123.864C335.11 124.856 334.694 125.752 334.118 126.552C333.574 127.352 332.79 127.992 331.766 128.472C330.87 128.92 329.91 129.224 328.886 129.384C327.862 129.576 326.838 129.656 325.814 129.624C324.79 129.592 323.798 129.432 322.838 129.144C321.878 128.888 321.014 128.52 320.246 128.04C319.478 127.56 318.854 126.936 318.374 126.168C317.894 125.4 317.51 124.568 317.222 123.672C316.966 122.776 316.79 121.848 316.694 120.888C316.598 119.928 316.534 119.032 316.502 118.2C316.374 115.992 316.374 113.816 316.502 111.672C316.502 111.256 316.502 110.792 316.502 110.28C316.502 109.736 316.534 109.208 316.598 108.696C316.694 108.184 316.838 107.72 317.03 107.304C317.222 106.856 317.542 106.52 317.99 106.296C318.95 105.784 319.83 105.752 320.63 106.2C321.462 106.648 321.958 107.576 322.118 108.984C322.214 109.72 322.246 110.536 322.214 111.432C322.214 112.328 322.246 113.144 322.31 113.88C322.342 114.968 322.374 116.152 322.406 117.432C322.438 118.68 322.614 119.8 322.934 120.792C323.286 121.784 323.846 122.536 324.614 123.048C325.414 123.528 326.598 123.544 328.166 123.096C328.902 122.872 329.382 122.312 329.606 121.416C329.862 120.52 329.99 119.192 329.99 117.432C329.99 116.664 329.974 115.816 329.942 114.888C329.91 113.96 329.894 113.048 329.894 112.152C329.894 111.224 329.91 110.376 329.942 109.608C330.006 108.808 330.102 108.2 330.23 107.784C330.39 107.208 330.726 106.776 331.238 106.488C331.75 106.2 332.294 106.056 332.87 106.056C333.446 106.024 333.99 106.136 334.502 106.392C335.014 106.648 335.366 107.064 335.558 107.64C335.75 108.152 335.878 108.808 335.942 109.608C336.038 110.376 336.102 111.224 336.134 112.152C336.166 113.048 336.166 113.976 336.134 114.936C336.134 115.864 336.118 116.744 336.086 117.576ZM355.917 119.832C356.269 120.28 356.749 120.856 357.357 121.56C357.997 122.232 358.589 122.952 359.133 123.72C359.709 124.456 360.173 125.192 360.525 125.928C360.877 126.664 360.973 127.304 360.813 127.848C360.557 128.68 360.077 129.16 359.373 129.288C358.669 129.416 357.933 129.288 357.165 128.904C356.621 128.648 355.997 128.2 355.293 127.56C354.589 126.92 353.901 126.248 353.229 125.544C352.589 124.84 352.013 124.184 351.501 123.576C350.989 122.936 350.637 122.488 350.445 122.232C350.445 122.2 350.429 122.184 350.397 122.184C350.397 122.184 350.397 122.168 350.397 122.136C350.173 122.392 349.949 122.68 349.725 123C349.501 123.288 349.261 123.576 349.005 123.864C348.685 124.248 348.317 124.712 347.901 125.256C347.517 125.768 347.085 126.28 346.605 126.792C346.157 127.304 345.677 127.784 345.165 128.232C344.685 128.648 344.205 128.952 343.725 129.144C343.085 129.4 342.461 129.352 341.853 129C341.277 128.68 340.909 128.232 340.749 127.656C340.557 126.984 340.605 126.28 340.893 125.544C341.181 124.808 341.565 124.104 342.045 123.432C342.525 122.728 343.037 122.056 343.581 121.416C344.157 120.776 344.621 120.216 344.973 119.736C345.325 119.288 345.629 118.904 345.885 118.584C346.173 118.232 346.445 117.896 346.701 117.576C346.253 117.096 345.773 116.568 345.261 115.992C344.749 115.384 344.029 114.6 343.101 113.64C342.781 113.288 342.429 112.904 342.045 112.488C341.661 112.04 341.309 111.576 340.989 111.096C340.669 110.616 340.413 110.12 340.221 109.608C340.029 109.096 339.981 108.568 340.077 108.024C340.173 107.544 340.381 107.16 340.701 106.872C341.021 106.552 341.405 106.344 341.853 106.248C342.301 106.12 342.765 106.104 343.245 106.2C343.725 106.296 344.173 106.488 344.589 106.776C345.421 107.384 346.205 108.136 346.941 109.032C347.677 109.928 348.397 110.776 349.101 111.576C349.325 111.864 349.533 112.136 349.725 112.392C349.949 112.616 350.157 112.84 350.349 113.064C350.509 112.808 350.701 112.552 350.925 112.296C351.181 112.04 351.437 111.736 351.693 111.384C352.333 110.616 352.973 109.816 353.613 108.984C354.285 108.152 355.021 107.432 355.821 106.824C356.237 106.504 356.669 106.312 357.117 106.248C357.597 106.152 358.045 106.168 358.461 106.296C358.877 106.392 359.245 106.584 359.565 106.872C359.885 107.16 360.093 107.512 360.189 107.928C360.317 108.44 360.301 108.952 360.141 109.464C360.013 109.976 359.789 110.472 359.469 110.952C359.181 111.432 358.845 111.896 358.461 112.344C358.109 112.76 357.773 113.144 357.453 113.496C356.717 114.296 356.077 115.016 355.533 115.656C354.989 116.296 354.477 116.904 353.997 117.48C354.285 117.8 354.573 118.152 354.861 118.536C355.181 118.888 355.533 119.32 355.917 119.832ZM379.361 93.624C379.617 93.208 379.969 92.904 380.417 92.712C380.865 92.52 381.297 92.424 381.713 92.424C382.065 92.424 382.401 92.44 382.721 92.472C383.073 92.472 383.409 92.504 383.729 92.568C384.401 92.76 384.881 93.192 385.169 93.864C385.457 94.504 385.633 95.256 385.697 96.12C385.793 96.952 385.809 97.784 385.745 98.616C385.713 99.448 385.697 100.12 385.697 100.632V114.792C385.697 115.432 385.697 116.072 385.697 116.712C385.697 117.352 385.585 117.96 385.361 118.536C385.137 119.08 384.721 119.48 384.113 119.736C383.505 119.992 382.865 120.12 382.193 120.12C381.521 120.088 380.881 119.944 380.273 119.688C379.665 119.4 379.249 119 379.025 118.488C378.929 118.2 378.849 117.848 378.785 117.432C378.753 116.984 378.721 116.584 378.689 116.232C378.657 115.688 378.641 115.128 378.641 114.552C378.673 113.944 378.689 113.336 378.689 112.728V96.648C378.689 96.264 378.737 95.768 378.833 95.16C378.929 94.552 379.105 94.04 379.361 93.624ZM384.881 124.488C384.977 124.648 385.057 124.808 385.121 124.968C385.217 125.096 385.297 125.256 385.361 125.448C385.457 125.8 385.521 126.168 385.553 126.552C385.585 126.936 385.553 127.32 385.457 127.704C385.361 128.056 385.201 128.392 384.977 128.712C384.753 129.032 384.449 129.272 384.065 129.432C383.713 129.592 383.297 129.688 382.817 129.72C382.337 129.752 381.873 129.72 381.425 129.624C380.977 129.528 380.561 129.352 380.177 129.096C379.793 128.84 379.521 128.504 379.361 128.088C379.201 127.64 379.105 127.128 379.073 126.552C379.073 125.944 379.153 125.416 379.313 124.968C379.505 124.488 379.809 124.168 380.225 124.008C380.641 123.816 381.089 123.72 381.569 123.72C382.177 123.688 382.769 123.704 383.345 123.768C383.953 123.832 384.465 124.072 384.881 124.488Z" fill="black"/>
    <path d="M44.208 158.68C46.128 158.68 47.576 159.112 48.552 159.976C49.544 160.824 50.04 161.992 50.04 163.48C50.04 165 49.544 166.184 48.552 167.032C47.576 167.88 46.128 168.304 44.208 168.304H40.872V175H38.664V158.68H44.208ZM44.208 166.624C46.624 166.624 47.832 165.576 47.832 163.48C47.832 162.488 47.52 161.72 46.896 161.176C46.272 160.616 45.376 160.336 44.208 160.336H40.872V166.624H44.208ZM58.0851 175.432C56.7411 175.432 55.6051 175.128 54.6771 174.52C53.7491 173.912 53.0531 173.096 52.5891 172.072C52.1411 171.032 51.9171 169.88 51.9171 168.616C51.9171 167.336 52.1411 166.176 52.5891 165.136C53.0531 164.096 53.7491 163.272 54.6771 162.664C55.6051 162.056 56.7411 161.752 58.0851 161.752C59.4131 161.752 60.5411 162.064 61.4691 162.688C62.3971 163.312 63.0851 164.144 63.5331 165.184C63.9971 166.208 64.2291 167.336 64.2291 168.568C64.2291 169.816 63.9971 170.96 63.5331 172C63.0851 173.04 62.3971 173.872 61.4691 174.496C60.5411 175.12 59.4131 175.432 58.0851 175.432ZM58.0611 173.776C59.3411 173.776 60.3251 173.312 61.0131 172.384C61.7011 171.44 62.0451 170.176 62.0451 168.592C62.0451 167.024 61.7011 165.768 61.0131 164.824C60.3251 163.88 59.3411 163.408 58.0611 163.408C56.7811 163.408 55.7971 163.88 55.1091 164.824C54.4371 165.768 54.1011 167.024 54.1011 168.592C54.1011 170.176 54.4371 171.44 55.1091 172.384C55.7971 173.312 56.7811 173.776 58.0611 173.776ZM71.0312 175.432C70.0712 175.432 69.2312 175.328 68.5112 175.12C67.7912 174.912 67.1192 174.608 66.4952 174.208L67.1432 172.648C68.2152 173.4 69.5112 173.776 71.0312 173.776C71.8632 173.776 72.5352 173.584 73.0472 173.2C73.5752 172.816 73.8392 172.272 73.8392 171.568C73.8392 171.168 73.7112 170.832 73.4552 170.56C73.1992 170.272 72.8792 170.04 72.4952 169.864C72.1272 169.672 71.5992 169.448 70.9112 169.192C70.0632 168.888 69.3752 168.608 68.8472 168.352C68.3192 168.08 67.8712 167.712 67.5032 167.248C67.1352 166.768 66.9512 166.16 66.9512 165.424C66.9512 164.24 67.3672 163.336 68.1992 162.712C69.0472 162.072 70.1352 161.752 71.4632 161.752C72.9992 161.752 74.3592 162.144 75.5432 162.928L74.9192 164.488C73.8952 163.768 72.7592 163.408 71.5112 163.408C70.7752 163.408 70.1832 163.56 69.7352 163.864C69.2872 164.168 69.0632 164.632 69.0632 165.256C69.0632 165.832 69.3032 166.28 69.7832 166.6C70.2632 166.92 70.9912 167.248 71.9672 167.584C72.8152 167.888 73.5032 168.176 74.0312 168.448C74.5592 168.72 75.0072 169.104 75.3752 169.6C75.7592 170.096 75.9512 170.728 75.9512 171.496C75.9512 172.696 75.5032 173.656 74.6072 174.376C73.7112 175.08 72.5192 175.432 71.0312 175.432ZM82.7499 175.432C81.7899 175.432 80.9499 175.328 80.2299 175.12C79.5099 174.912 78.8379 174.608 78.2139 174.208L78.8619 172.648C79.9339 173.4 81.2299 173.776 82.7499 173.776C83.5819 173.776 84.2539 173.584 84.7659 173.2C85.2939 172.816 85.5579 172.272 85.5579 171.568C85.5579 171.168 85.4299 170.832 85.1739 170.56C84.9179 170.272 84.5979 170.04 84.2139 169.864C83.8459 169.672 83.3179 169.448 82.6299 169.192C81.7819 168.888 81.0939 168.608 80.5659 168.352C80.0379 168.08 79.5899 167.712 79.2219 167.248C78.8539 166.768 78.6699 166.16 78.6699 165.424C78.6699 164.24 79.0859 163.336 79.9179 162.712C80.7659 162.072 81.8539 161.752 83.1819 161.752C84.7179 161.752 86.0779 162.144 87.2619 162.928L86.6379 164.488C85.6139 163.768 84.4779 163.408 83.2299 163.408C82.4939 163.408 81.9019 163.56 81.4539 163.864C81.0059 164.168 80.7819 164.632 80.7819 165.256C80.7819 165.832 81.0219 166.28 81.5019 166.6C81.9819 166.92 82.7099 167.248 83.6859 167.584C84.5339 167.888 85.2219 168.176 85.7499 168.448C86.2779 168.72 86.7259 169.104 87.0939 169.6C87.4779 170.096 87.6699 170.728 87.6699 171.496C87.6699 172.696 87.2219 173.656 86.3259 174.376C85.4299 175.08 84.2379 175.432 82.7499 175.432ZM96.1007 175.432C94.7567 175.432 93.6207 175.128 92.6927 174.52C91.7647 173.912 91.0687 173.096 90.6047 172.072C90.1567 171.032 89.9327 169.88 89.9327 168.616C89.9327 167.336 90.1567 166.176 90.6047 165.136C91.0687 164.096 91.7647 163.272 92.6927 162.664C93.6207 162.056 94.7567 161.752 96.1007 161.752C97.4287 161.752 98.5567 162.064 99.4847 162.688C100.413 163.312 101.101 164.144 101.549 165.184C102.013 166.208 102.245 167.336 102.245 168.568C102.245 169.816 102.013 170.96 101.549 172C101.101 173.04 100.413 173.872 99.4847 174.496C98.5567 175.12 97.4287 175.432 96.1007 175.432ZM96.0767 173.776C97.3567 173.776 98.3407 173.312 99.0287 172.384C99.7167 171.44 100.061 170.176 100.061 168.592C100.061 167.024 99.7167 165.768 99.0287 164.824C98.3407 163.88 97.3567 163.408 96.0767 163.408C94.7967 163.408 93.8127 163.88 93.1247 164.824C92.4527 165.768 92.1167 167.024 92.1167 168.592C92.1167 170.176 92.4527 171.44 93.1247 172.384C93.8127 173.312 94.7967 173.776 96.0767 173.776ZM118.839 174.52C118.007 175.048 117.111 175.312 116.151 175.312C114.775 175.312 113.759 174.944 113.103 174.208C112.447 173.456 112.119 172.384 112.119 170.992V163.792H110.079V162.88L112.311 162.256L112.959 159.16H114.255V162.184H118.095V163.792H114.255V170.656C114.255 171.696 114.423 172.456 114.759 172.936C115.095 173.4 115.639 173.632 116.391 173.632C116.759 173.616 117.095 173.56 117.399 173.464C117.719 173.368 118.071 173.216 118.455 173.008L118.839 174.52ZM126.944 173.776C127.744 173.776 128.464 173.6 129.104 173.248C129.744 172.896 130.36 172.416 130.952 171.808L131.768 173.152C131.128 173.872 130.408 174.432 129.608 174.832C128.824 175.232 127.928 175.432 126.92 175.432C125.576 175.432 124.44 175.128 123.512 174.52C122.6 173.896 121.912 173.072 121.448 172.048C121 171.008 120.776 169.864 120.776 168.616C120.776 167.336 121 166.176 121.448 165.136C121.912 164.096 122.608 163.272 123.536 162.664C124.464 162.056 125.592 161.752 126.92 161.752C127.848 161.752 128.68 161.944 129.416 162.328C130.168 162.696 130.752 163.24 131.168 163.96C131.584 164.68 131.792 165.528 131.792 166.504C131.792 166.872 131.736 167.352 131.624 167.944H122.96C122.944 168.088 122.936 168.296 122.936 168.568C122.936 170.152 123.272 171.416 123.944 172.36C124.632 173.304 125.632 173.776 126.944 173.776ZM126.848 163.336C125.904 163.336 125.12 163.608 124.496 164.152C123.888 164.696 123.456 165.44 123.2 166.384H129.68V166.192C129.68 165.264 129.4 164.56 128.84 164.08C128.296 163.584 127.632 163.336 126.848 163.336ZM151.848 174.976C151.272 175.184 150.696 175.296 150.12 175.312C149.48 175.312 148.952 175.184 148.536 174.928C148.136 174.672 147.888 174.224 147.792 173.584C146.272 174.752 144.864 175.336 143.568 175.336C142.56 175.336 141.736 175.048 141.096 174.472C140.456 173.88 140.136 173.144 140.136 172.264C140.136 171.448 140.36 170.776 140.808 170.248C141.256 169.704 141.88 169.256 142.68 168.904C143.496 168.552 144.592 168.176 145.968 167.776L147.744 167.272V166.336C147.744 164.416 147.016 163.456 145.56 163.456C144.76 163.456 144.024 163.624 143.352 163.96C142.68 164.28 141.92 164.888 141.072 165.784L140.184 164.44C141.976 162.648 143.904 161.752 145.968 161.752C147.344 161.752 148.336 162.112 148.944 162.832C149.568 163.552 149.88 164.752 149.88 166.432V172.696C149.88 173.048 149.944 173.304 150.072 173.464C150.2 173.608 150.4 173.68 150.672 173.68C150.912 173.68 151.256 173.6 151.704 173.44L151.848 174.976ZM142.272 172.096C142.272 172.64 142.432 173.04 142.752 173.296C143.072 173.552 143.496 173.68 144.024 173.68C144.568 173.68 145.128 173.544 145.704 173.272C146.296 173 146.976 172.584 147.744 172.024V168.688L146.376 169.096C144.856 169.56 143.792 170.008 143.184 170.44C142.576 170.872 142.272 171.424 142.272 172.096ZM155.681 158.224C155.313 158.224 154.993 158.096 154.721 157.84C154.449 157.568 154.313 157.248 154.313 156.88C154.313 156.496 154.449 156.168 154.721 155.896C154.993 155.624 155.313 155.488 155.681 155.488C156.065 155.488 156.393 155.624 156.665 155.896C156.937 156.168 157.073 156.496 157.073 156.88C157.073 157.248 156.937 157.568 156.665 157.84C156.393 158.096 156.065 158.224 155.681 158.224ZM152.249 180.832C151.785 180.832 151.257 180.768 150.665 180.64L150.929 179.032C151.329 179.112 151.697 179.152 152.033 179.152C152.913 179.152 153.553 178.856 153.953 178.264C154.353 177.672 154.553 176.76 154.553 175.528V162.184H156.713V175.576C156.713 177.272 156.345 178.568 155.609 179.464C154.873 180.376 153.753 180.832 152.249 180.832ZM171.313 162.184V175H169.657L169.345 173.656C167.793 174.84 166.289 175.432 164.833 175.432C163.425 175.432 162.449 175.064 161.905 174.328C161.377 173.576 161.113 172.504 161.113 171.112V162.184H163.249V170.92C163.249 171.928 163.409 172.648 163.729 173.08C164.049 173.512 164.601 173.728 165.385 173.728C165.977 173.728 166.577 173.592 167.185 173.32C167.793 173.048 168.457 172.632 169.177 172.072V162.184H171.313ZM185.794 155.8V175H184.138L183.898 173.92C182.73 174.928 181.442 175.432 180.034 175.432C178.994 175.432 178.066 175.176 177.25 174.664C176.45 174.136 175.826 173.376 175.378 172.384C174.93 171.392 174.706 170.2 174.706 168.808C174.706 166.472 175.298 164.712 176.482 163.528C177.682 162.344 179.274 161.752 181.258 161.752C182.154 161.752 182.954 161.888 183.658 162.16V155.8H185.794ZM176.89 168.808C176.89 170.536 177.202 171.792 177.826 172.576C178.466 173.36 179.25 173.752 180.178 173.752C180.85 173.752 181.442 173.648 181.954 173.44C182.466 173.232 183.034 172.896 183.658 172.432V163.816C182.986 163.544 182.218 163.408 181.354 163.408C179.85 163.408 178.73 163.896 177.994 164.872C177.258 165.832 176.89 167.144 176.89 168.808ZM200.903 174.976C200.327 175.184 199.751 175.296 199.175 175.312C198.535 175.312 198.007 175.184 197.591 174.928C197.191 174.672 196.943 174.224 196.847 173.584C195.327 174.752 193.919 175.336 192.623 175.336C191.615 175.336 190.791 175.048 190.151 174.472C189.511 173.88 189.191 173.144 189.191 172.264C189.191 171.448 189.415 170.776 189.863 170.248C190.311 169.704 190.935 169.256 191.735 168.904C192.551 168.552 193.647 168.176 195.023 167.776L196.799 167.272V166.336C196.799 164.416 196.071 163.456 194.615 163.456C193.815 163.456 193.079 163.624 192.407 163.96C191.735 164.28 190.975 164.888 190.127 165.784L189.239 164.44C191.031 162.648 192.959 161.752 195.023 161.752C196.399 161.752 197.391 162.112 197.999 162.832C198.623 163.552 198.935 164.752 198.935 166.432V172.696C198.935 173.048 198.999 173.304 199.127 173.464C199.255 173.608 199.455 173.68 199.727 173.68C199.967 173.68 200.311 173.6 200.759 173.44L200.903 174.976ZM191.327 172.096C191.327 172.64 191.487 173.04 191.807 173.296C192.127 173.552 192.551 173.68 193.079 173.68C193.623 173.68 194.183 173.544 194.759 173.272C195.351 173 196.031 172.584 196.799 172.024V168.688L195.431 169.096C193.911 169.56 192.847 170.008 192.239 170.44C191.631 170.872 191.327 171.424 191.327 172.096ZM210.28 163.768C209.512 163.768 208.776 163.904 208.072 164.176C207.384 164.432 206.608 164.912 205.744 165.616V175H203.608V162.184H205.264L205.648 163.912C206.432 163.128 207.192 162.576 207.928 162.256C208.68 161.936 209.464 161.776 210.28 161.776V163.768ZM229.848 174.976C229.272 175.184 228.696 175.296 228.12 175.312C227.48 175.312 226.952 175.184 226.536 174.928C226.136 174.672 225.888 174.224 225.792 173.584C224.272 174.752 222.864 175.336 221.568 175.336C220.56 175.336 219.736 175.048 219.096 174.472C218.456 173.88 218.136 173.144 218.136 172.264C218.136 171.448 218.36 170.776 218.808 170.248C219.256 169.704 219.88 169.256 220.68 168.904C221.496 168.552 222.592 168.176 223.968 167.776L225.744 167.272V166.336C225.744 164.416 225.016 163.456 223.56 163.456C222.76 163.456 222.024 163.624 221.352 163.96C220.68 164.28 219.92 164.888 219.072 165.784L218.184 164.44C219.976 162.648 221.904 161.752 223.968 161.752C225.344 161.752 226.336 162.112 226.944 162.832C227.568 163.552 227.88 164.752 227.88 166.432V172.696C227.88 173.048 227.944 173.304 228.072 173.464C228.2 173.608 228.4 173.68 228.672 173.68C228.912 173.68 229.256 173.6 229.704 173.44L229.848 174.976ZM220.272 172.096C220.272 172.64 220.432 173.04 220.752 173.296C221.072 173.552 221.496 173.68 222.024 173.68C222.568 173.68 223.128 173.544 223.704 173.272C224.296 173 224.976 172.584 225.744 172.024V168.688L224.376 169.096C222.856 169.56 221.792 170.008 221.184 170.44C220.576 170.872 220.272 171.424 220.272 172.096ZM249.161 174.976C248.585 175.184 248.009 175.296 247.433 175.312C246.793 175.312 246.265 175.184 245.849 174.928C245.449 174.672 245.201 174.224 245.105 173.584C243.585 174.752 242.177 175.336 240.881 175.336C239.873 175.336 239.049 175.048 238.409 174.472C237.769 173.88 237.449 173.144 237.449 172.264C237.449 171.448 237.673 170.776 238.121 170.248C238.569 169.704 239.193 169.256 239.993 168.904C240.809 168.552 241.905 168.176 243.281 167.776L245.057 167.272V166.336C245.057 164.416 244.329 163.456 242.873 163.456C242.073 163.456 241.337 163.624 240.665 163.96C239.993 164.28 239.233 164.888 238.385 165.784L237.497 164.44C239.289 162.648 241.217 161.752 243.281 161.752C244.657 161.752 245.649 162.112 246.257 162.832C246.881 163.552 247.193 164.752 247.193 166.432V172.696C247.193 173.048 247.257 173.304 247.385 173.464C247.513 173.608 247.713 173.68 247.985 173.68C248.225 173.68 248.569 173.6 249.017 173.44L249.161 174.976ZM239.585 172.096C239.585 172.64 239.745 173.04 240.065 173.296C240.385 173.552 240.809 173.68 241.337 173.68C241.881 173.68 242.441 173.544 243.017 173.272C243.609 173 244.289 172.584 245.057 172.024V168.688L243.689 169.096C242.169 169.56 241.105 170.008 240.497 170.44C239.889 170.872 239.585 171.424 239.585 172.096ZM258.345 161.752C259.753 161.752 260.721 162.128 261.249 162.88C261.793 163.616 262.065 164.68 262.065 166.072V175H259.929V166.264C259.929 165.256 259.769 164.536 259.449 164.104C259.129 163.672 258.577 163.456 257.793 163.456C257.201 163.456 256.601 163.592 255.993 163.864C255.385 164.136 254.721 164.552 254.001 165.112V175H251.865V162.184H253.521L253.833 163.528C255.385 162.344 256.889 161.752 258.345 161.752ZM277.075 174.976C276.499 175.184 275.923 175.296 275.347 175.312C274.707 175.312 274.179 175.184 273.763 174.928C273.363 174.672 273.115 174.224 273.019 173.584C271.499 174.752 270.091 175.336 268.795 175.336C267.787 175.336 266.963 175.048 266.323 174.472C265.683 173.88 265.363 173.144 265.363 172.264C265.363 171.448 265.587 170.776 266.035 170.248C266.483 169.704 267.107 169.256 267.907 168.904C268.723 168.552 269.819 168.176 271.195 167.776L272.971 167.272V166.336C272.971 164.416 272.243 163.456 270.787 163.456C269.987 163.456 269.251 163.624 268.579 163.96C267.907 164.28 267.147 164.888 266.299 165.784L265.411 164.44C267.203 162.648 269.131 161.752 271.195 161.752C272.571 161.752 273.563 162.112 274.171 162.832C274.795 163.552 275.107 164.752 275.107 166.432V172.696C275.107 173.048 275.171 173.304 275.299 173.464C275.427 173.608 275.627 173.68 275.899 173.68C276.139 173.68 276.483 173.6 276.931 173.44L277.075 174.976ZM267.499 172.096C267.499 172.64 267.659 173.04 267.979 173.296C268.299 173.552 268.723 173.68 269.251 173.68C269.795 173.68 270.355 173.544 270.931 173.272C271.523 173 272.203 172.584 272.971 172.024V168.688L271.603 169.096C270.083 169.56 269.019 170.008 268.411 170.44C267.803 170.872 267.499 171.424 267.499 172.096ZM279.779 155.8H281.915V175H279.779V155.8ZM287.659 158.224C287.291 158.224 286.971 158.096 286.699 157.84C286.427 157.568 286.291 157.248 286.291 156.88C286.291 156.496 286.427 156.168 286.699 155.896C286.971 155.624 287.291 155.488 287.659 155.488C288.043 155.488 288.371 155.624 288.643 155.896C288.915 156.168 289.051 156.496 289.051 156.88C289.051 157.248 288.915 157.568 288.643 157.84C288.371 158.096 288.043 158.224 287.659 158.224ZM286.603 162.184H288.739V175H286.603V162.184ZM296.828 175.432C295.868 175.432 295.028 175.328 294.308 175.12C293.588 174.912 292.916 174.608 292.292 174.208L292.94 172.648C294.012 173.4 295.308 173.776 296.828 173.776C297.66 173.776 298.332 173.584 298.844 173.2C299.372 172.816 299.636 172.272 299.636 171.568C299.636 171.168 299.508 170.832 299.252 170.56C298.996 170.272 298.676 170.04 298.292 169.864C297.924 169.672 297.396 169.448 296.708 169.192C295.86 168.888 295.172 168.608 294.644 168.352C294.116 168.08 293.668 167.712 293.3 167.248C292.932 166.768 292.748 166.16 292.748 165.424C292.748 164.24 293.164 163.336 293.996 162.712C294.844 162.072 295.932 161.752 297.26 161.752C298.796 161.752 300.156 162.144 301.34 162.928L300.716 164.488C299.692 163.768 298.556 163.408 297.308 163.408C296.572 163.408 295.98 163.56 295.532 163.864C295.084 164.168 294.86 164.632 294.86 165.256C294.86 165.832 295.1 166.28 295.58 166.6C296.06 166.92 296.788 167.248 297.764 167.584C298.612 167.888 299.3 168.176 299.828 168.448C300.356 168.72 300.804 169.104 301.172 169.6C301.556 170.096 301.748 170.728 301.748 171.496C301.748 172.696 301.3 173.656 300.404 174.376C299.508 175.08 298.316 175.432 296.828 175.432ZM315.747 174.976C315.171 175.184 314.595 175.296 314.019 175.312C313.379 175.312 312.851 175.184 312.435 174.928C312.035 174.672 311.787 174.224 311.691 173.584C310.171 174.752 308.763 175.336 307.467 175.336C306.459 175.336 305.635 175.048 304.995 174.472C304.355 173.88 304.035 173.144 304.035 172.264C304.035 171.448 304.259 170.776 304.707 170.248C305.155 169.704 305.779 169.256 306.579 168.904C307.395 168.552 308.491 168.176 309.867 167.776L311.643 167.272V166.336C311.643 164.416 310.915 163.456 309.459 163.456C308.659 163.456 307.923 163.624 307.251 163.96C306.579 164.28 305.819 164.888 304.971 165.784L304.083 164.44C305.875 162.648 307.803 161.752 309.867 161.752C311.243 161.752 312.235 162.112 312.843 162.832C313.467 163.552 313.779 164.752 313.779 166.432V172.696C313.779 173.048 313.843 173.304 313.971 173.464C314.099 173.608 314.299 173.68 314.571 173.68C314.811 173.68 315.155 173.6 315.603 173.44L315.747 174.976ZM306.171 172.096C306.171 172.64 306.331 173.04 306.651 173.296C306.971 173.552 307.395 173.68 307.923 173.68C308.467 173.68 309.027 173.544 309.603 173.272C310.195 173 310.875 172.584 311.643 172.024V168.688L310.275 169.096C308.755 169.56 307.691 170.008 307.083 170.44C306.475 170.872 306.171 171.424 306.171 172.096ZM325.123 163.768C324.355 163.768 323.619 163.904 322.915 164.176C322.227 164.432 321.451 164.912 320.587 165.616V175H318.451V162.184H320.107L320.491 163.912C321.275 163.128 322.035 162.576 322.771 162.256C323.523 161.936 324.307 161.776 325.123 161.776V163.768ZM339.124 173.776C339.924 173.776 340.644 173.6 341.284 173.248C341.924 172.896 342.54 172.416 343.132 171.808L343.948 173.152C343.308 173.872 342.588 174.432 341.788 174.832C341.004 175.232 340.108 175.432 339.1 175.432C337.756 175.432 336.62 175.128 335.692 174.52C334.78 173.896 334.092 173.072 333.628 172.048C333.18 171.008 332.956 169.864 332.956 168.616C332.956 167.336 333.18 166.176 333.628 165.136C334.092 164.096 334.788 163.272 335.716 162.664C336.644 162.056 337.772 161.752 339.1 161.752C340.028 161.752 340.86 161.944 341.596 162.328C342.348 162.696 342.932 163.24 343.348 163.96C343.764 164.68 343.972 165.528 343.972 166.504C343.972 166.872 343.916 167.352 343.804 167.944H335.14C335.124 168.088 335.116 168.296 335.116 168.568C335.116 170.152 335.452 171.416 336.124 172.36C336.812 173.304 337.812 173.776 339.124 173.776ZM339.028 163.336C338.084 163.336 337.3 163.608 336.676 164.152C336.068 164.696 335.636 165.44 335.38 166.384H341.86V166.192C341.86 165.264 341.58 164.56 341.02 164.08C340.476 163.584 339.812 163.336 339.028 163.336ZM353.9 161.752C355.308 161.752 356.276 162.128 356.804 162.88C357.348 163.616 357.62 164.68 357.62 166.072V175H355.484V166.264C355.484 165.256 355.324 164.536 355.004 164.104C354.684 163.672 354.132 163.456 353.348 163.456C352.756 163.456 352.156 163.592 351.548 163.864C350.94 164.136 350.276 164.552 349.556 165.112V175H347.42V162.184H349.076L349.388 163.528C350.94 162.344 352.444 161.752 353.9 161.752ZM369.222 174.52C368.39 175.048 367.494 175.312 366.534 175.312C365.158 175.312 364.142 174.944 363.486 174.208C362.83 173.456 362.502 172.384 362.502 170.992V163.792H360.462V162.88L362.694 162.256L363.342 159.16H364.638V162.184H368.478V163.792H364.638V170.656C364.638 171.696 364.806 172.456 365.142 172.936C365.478 173.4 366.022 173.632 366.774 173.632C367.142 173.616 367.478 173.56 367.782 173.464C368.102 173.368 368.454 173.216 368.838 173.008L369.222 174.52ZM378.959 163.768C378.191 163.768 377.455 163.904 376.751 164.176C376.063 164.432 375.287 164.912 374.423 165.616V175H372.287V162.184H373.943L374.327 163.912C375.111 163.128 375.871 162.576 376.607 162.256C377.359 161.936 378.143 161.776 378.959 161.776V163.768ZM386.96 173.776C387.76 173.776 388.48 173.6 389.12 173.248C389.76 172.896 390.376 172.416 390.968 171.808L391.784 173.152C391.144 173.872 390.424 174.432 389.624 174.832C388.84 175.232 387.944 175.432 386.936 175.432C385.592 175.432 384.456 175.128 383.528 174.52C382.616 173.896 381.928 173.072 381.464 172.048C381.016 171.008 380.792 169.864 380.792 168.616C380.792 167.336 381.016 166.176 381.464 165.136C381.928 164.096 382.624 163.272 383.552 162.664C384.48 162.056 385.608 161.752 386.936 161.752C387.864 161.752 388.696 161.944 389.432 162.328C390.184 162.696 390.768 163.24 391.184 163.96C391.6 164.68 391.808 165.528 391.808 166.504C391.808 166.872 391.752 167.352 391.64 167.944H382.976C382.96 168.088 382.952 168.296 382.952 168.568C382.952 170.152 383.288 171.416 383.96 172.36C384.648 173.304 385.648 173.776 386.96 173.776ZM386.864 163.336C385.92 163.336 385.136 163.608 384.512 164.152C383.904 164.696 383.472 165.44 383.216 166.384H389.696V166.192C389.696 165.264 389.416 164.56 388.856 164.08C388.312 163.584 387.648 163.336 386.864 163.336ZM405.36 162.184L400.344 175.192H398.4L393.384 162.184H395.592L399.384 172.624L403.176 162.184H405.36ZM409.206 158.224C408.838 158.224 408.518 158.096 408.246 157.84C407.974 157.568 407.838 157.248 407.838 156.88C407.838 156.496 407.974 156.168 408.246 155.896C408.518 155.624 408.838 155.488 409.206 155.488C409.59 155.488 409.918 155.624 410.19 155.896C410.462 156.168 410.598 156.496 410.598 156.88C410.598 157.248 410.462 157.568 410.19 157.84C409.918 158.096 409.59 158.224 409.206 158.224ZM408.15 162.184H410.286V175H408.15V162.184ZM418.375 175.432C417.415 175.432 416.575 175.328 415.855 175.12C415.135 174.912 414.463 174.608 413.839 174.208L414.487 172.648C415.559 173.4 416.855 173.776 418.375 173.776C419.207 173.776 419.879 173.584 420.391 173.2C420.919 172.816 421.183 172.272 421.183 171.568C421.183 171.168 421.055 170.832 420.799 170.56C420.543 170.272 420.223 170.04 419.839 169.864C419.471 169.672 418.943 169.448 418.255 169.192C417.407 168.888 416.719 168.608 416.191 168.352C415.663 168.08 415.215 167.712 414.847 167.248C414.479 166.768 414.295 166.16 414.295 165.424C414.295 164.24 414.711 163.336 415.543 162.712C416.391 162.072 417.479 161.752 418.807 161.752C420.343 161.752 421.703 162.144 422.887 162.928L422.263 164.488C421.239 163.768 420.103 163.408 418.855 163.408C418.119 163.408 417.527 163.56 417.079 163.864C416.631 164.168 416.407 164.632 416.407 165.256C416.407 165.832 416.647 166.28 417.127 166.6C417.607 166.92 418.335 167.248 419.311 167.584C420.159 167.888 420.847 168.176 421.375 168.448C421.903 168.72 422.351 169.104 422.719 169.6C423.103 170.096 423.295 170.728 423.295 171.496C423.295 172.696 422.847 173.656 421.951 174.376C421.055 175.08 419.863 175.432 418.375 175.432ZM433.886 174.52C433.054 175.048 432.158 175.312 431.198 175.312C429.822 175.312 428.806 174.944 428.15 174.208C427.494 173.456 427.166 172.384 427.166 170.992V163.792H425.126V162.88L427.358 162.256L428.006 159.16H429.302V162.184H433.142V163.792H429.302V170.656C429.302 171.696 429.47 172.456 429.806 172.936C430.142 173.4 430.686 173.632 431.438 173.632C431.806 173.616 432.142 173.56 432.446 173.464C432.766 173.368 433.118 173.216 433.502 173.008L433.886 174.52ZM447.559 174.976C446.983 175.184 446.407 175.296 445.831 175.312C445.191 175.312 444.663 175.184 444.247 174.928C443.847 174.672 443.599 174.224 443.503 173.584C441.983 174.752 440.575 175.336 439.279 175.336C438.271 175.336 437.447 175.048 436.807 174.472C436.167 173.88 435.847 173.144 435.847 172.264C435.847 171.448 436.071 170.776 436.519 170.248C436.967 169.704 437.591 169.256 438.391 168.904C439.207 168.552 440.303 168.176 441.679 167.776L443.455 167.272V166.336C443.455 164.416 442.727 163.456 441.271 163.456C440.471 163.456 439.735 163.624 439.063 163.96C438.391 164.28 437.631 164.888 436.783 165.784L435.895 164.44C437.687 162.648 439.615 161.752 441.679 161.752C443.055 161.752 444.047 162.112 444.655 162.832C445.279 163.552 445.591 164.752 445.591 166.432V172.696C445.591 173.048 445.655 173.304 445.783 173.464C445.911 173.608 446.111 173.68 446.383 173.68C446.623 173.68 446.967 173.6 447.415 173.44L447.559 174.976ZM437.983 172.096C437.983 172.64 438.143 173.04 438.463 173.296C438.783 173.552 439.207 173.68 439.735 173.68C440.279 173.68 440.839 173.544 441.415 173.272C442.007 173 442.687 172.584 443.455 172.024V168.688L442.087 169.096C440.567 169.56 439.503 170.008 438.895 170.44C438.287 170.872 437.983 171.424 437.983 172.096ZM453.672 175.432C452.712 175.432 451.872 175.328 451.152 175.12C450.432 174.912 449.76 174.608 449.136 174.208L449.784 172.648C450.856 173.4 452.152 173.776 453.672 173.776C454.504 173.776 455.176 173.584 455.688 173.2C456.216 172.816 456.48 172.272 456.48 171.568C456.48 171.168 456.352 170.832 456.096 170.56C455.84 170.272 455.52 170.04 455.136 169.864C454.768 169.672 454.24 169.448 453.552 169.192C452.704 168.888 452.016 168.608 451.488 168.352C450.96 168.08 450.512 167.712 450.144 167.248C449.776 166.768 449.592 166.16 449.592 165.424C449.592 164.24 450.008 163.336 450.84 162.712C451.688 162.072 452.776 161.752 454.104 161.752C455.64 161.752 457 162.144 458.184 162.928L457.56 164.488C456.536 163.768 455.4 163.408 454.152 163.408C453.416 163.408 452.824 163.56 452.376 163.864C451.928 164.168 451.704 164.632 451.704 165.256C451.704 165.832 451.944 166.28 452.424 166.6C452.904 166.92 453.632 167.248 454.608 167.584C455.456 167.888 456.144 168.176 456.672 168.448C457.2 168.72 457.648 169.104 458.016 169.6C458.4 170.096 458.592 170.728 458.592 171.496C458.592 172.696 458.144 173.656 457.248 174.376C456.352 175.08 455.16 175.432 453.672 175.432ZM43.296 209.776C44.096 209.776 44.816 209.6 45.456 209.248C46.096 208.896 46.712 208.416 47.304 207.808L48.12 209.152C47.48 209.872 46.76 210.432 45.96 210.832C45.176 211.232 44.28 211.432 43.272 211.432C41.928 211.432 40.792 211.128 39.864 210.52C38.952 209.896 38.264 209.072 37.8 208.048C37.352 207.008 37.128 205.864 37.128 204.616C37.128 203.336 37.352 202.176 37.8 201.136C38.264 200.096 38.96 199.272 39.888 198.664C40.816 198.056 41.944 197.752 43.272 197.752C44.2 197.752 45.032 197.944 45.768 198.328C46.52 198.696 47.104 199.24 47.52 199.96C47.936 200.68 48.144 201.528 48.144 202.504C48.144 202.872 48.088 203.352 47.976 203.944H39.312C39.296 204.088 39.288 204.296 39.288 204.568C39.288 206.152 39.624 207.416 40.296 208.36C40.984 209.304 41.984 209.776 43.296 209.776ZM43.2 199.336C42.256 199.336 41.472 199.608 40.848 200.152C40.24 200.696 39.808 201.44 39.552 202.384H46.032V202.192C46.032 201.264 45.752 200.56 45.192 200.08C44.648 199.584 43.984 199.336 43.2 199.336ZM65.6079 197.752C66.9679 197.752 67.8959 198.12 68.3919 198.856C68.9039 199.592 69.1599 200.664 69.1599 202.072V211H67.0239V202.264C67.0239 201.256 66.8719 200.536 66.5679 200.104C66.2799 199.672 65.7759 199.456 65.0559 199.456C64.4959 199.456 63.9279 199.6 63.3519 199.888C62.7759 200.16 62.1279 200.576 61.4079 201.136C61.4399 201.328 61.4559 201.64 61.4559 202.072V211H59.3199V202.264C59.3199 201.256 59.1679 200.536 58.8639 200.104C58.5759 199.672 58.0719 199.456 57.3519 199.456C56.8079 199.456 56.2479 199.592 55.6719 199.864C55.0959 200.136 54.4479 200.552 53.7279 201.112V211H51.5919V198.184H53.2479L53.5599 199.528C55.0959 198.344 56.5439 197.752 57.9039 197.752C58.7839 197.752 59.4799 197.912 59.9919 198.232C60.5039 198.552 60.8799 199.016 61.1199 199.624C62.7199 198.376 64.2159 197.752 65.6079 197.752ZM85.3129 197.752C86.3689 197.752 87.2969 198.016 88.0969 198.544C88.8969 199.056 89.5209 199.816 89.9689 200.824C90.4169 201.816 90.6409 202.992 90.6409 204.352C90.6409 206.672 90.0409 208.432 88.8409 209.632C87.6409 210.832 86.0569 211.432 84.0889 211.432C83.2409 211.432 82.4409 211.288 81.6889 211V216.664H79.5529V198.136H81.2089L81.4489 199.216C82.5849 198.24 83.8729 197.752 85.3129 197.752ZM83.9929 209.776C85.5129 209.776 86.6329 209.288 87.3529 208.312C88.0889 207.336 88.4569 206 88.4569 204.304C88.4569 202.608 88.1369 201.376 87.4969 200.608C86.8729 199.824 86.0969 199.432 85.1689 199.432C84.4809 199.432 83.8729 199.536 83.3449 199.744C82.8329 199.936 82.2809 200.256 81.6889 200.704V209.32C82.3769 209.624 83.1449 209.776 83.9929 209.776ZM100.686 199.768C99.9178 199.768 99.1818 199.904 98.4778 200.176C97.7898 200.432 97.0138 200.912 96.1498 201.616V211H94.0138V198.184H95.6698L96.0538 199.912C96.8378 199.128 97.5978 198.576 98.3338 198.256C99.0858 197.936 99.8698 197.776 100.686 197.776V199.768ZM108.687 211.432C107.343 211.432 106.207 211.128 105.279 210.52C104.351 209.912 103.655 209.096 103.191 208.072C102.743 207.032 102.519 205.88 102.519 204.616C102.519 203.336 102.743 202.176 103.191 201.136C103.655 200.096 104.351 199.272 105.279 198.664C106.207 198.056 107.343 197.752 108.687 197.752C110.015 197.752 111.143 198.064 112.071 198.688C112.999 199.312 113.687 200.144 114.135 201.184C114.599 202.208 114.831 203.336 114.831 204.568C114.831 205.816 114.599 206.96 114.135 208C113.687 209.04 112.999 209.872 112.071 210.496C111.143 211.12 110.015 211.432 108.687 211.432ZM108.663 209.776C109.943 209.776 110.927 209.312 111.615 208.384C112.303 207.44 112.647 206.176 112.647 204.592C112.647 203.024 112.303 201.768 111.615 200.824C110.927 199.88 109.943 199.408 108.663 199.408C107.383 199.408 106.399 199.88 105.711 200.824C105.039 201.768 104.703 203.024 104.703 204.592C104.703 206.176 105.039 207.44 105.711 208.384C106.399 209.312 107.383 209.776 108.663 209.776ZM121.513 198.184H125.353V199.792H121.513V211H119.377V199.792H117.337V198.88L119.377 198.304V197.008C119.377 195.312 119.737 194.016 120.457 193.12C121.193 192.208 122.321 191.752 123.841 191.752C124.321 191.752 124.841 191.816 125.401 191.944L125.137 193.552C124.737 193.472 124.369 193.432 124.033 193.432C123.153 193.432 122.513 193.728 122.113 194.32C121.713 194.912 121.513 195.824 121.513 197.056V198.184ZM137.961 198.184V211H136.305L135.993 209.656C134.441 210.84 132.937 211.432 131.481 211.432C130.073 211.432 129.097 211.064 128.553 210.328C128.025 209.576 127.761 208.504 127.761 207.112V198.184H129.897V206.92C129.897 207.928 130.057 208.648 130.377 209.08C130.697 209.512 131.249 209.728 132.033 209.728C132.625 209.728 133.225 209.592 133.833 209.32C134.441 209.048 135.105 208.632 135.825 208.072V198.184H137.961ZM148.963 197.752C150.371 197.752 151.339 198.128 151.867 198.88C152.411 199.616 152.683 200.68 152.683 202.072V211H150.547V202.264C150.547 201.256 150.387 200.536 150.067 200.104C149.747 199.672 149.195 199.456 148.411 199.456C147.819 199.456 147.219 199.592 146.611 199.864C146.003 200.136 145.339 200.552 144.619 201.112V211H142.483V198.184H144.139L144.451 199.528C146.003 198.344 147.507 197.752 148.963 197.752ZM167.044 191.8V211H165.388L165.148 209.92C163.98 210.928 162.692 211.432 161.284 211.432C160.244 211.432 159.316 211.176 158.5 210.664C157.7 210.136 157.076 209.376 156.628 208.384C156.18 207.392 155.956 206.2 155.956 204.808C155.956 202.472 156.548 200.712 157.732 199.528C158.932 198.344 160.524 197.752 162.508 197.752C163.404 197.752 164.204 197.888 164.908 198.16V191.8H167.044ZM158.14 204.808C158.14 206.536 158.452 207.792 159.076 208.576C159.716 209.36 160.5 209.752 161.428 209.752C162.1 209.752 162.692 209.648 163.204 209.44C163.716 209.232 164.284 208.896 164.908 208.432V199.816C164.236 199.544 163.468 199.408 162.604 199.408C161.1 199.408 159.98 199.896 159.244 200.872C158.508 201.832 158.14 203.144 158.14 204.808ZM172.745 194.224C172.377 194.224 172.057 194.096 171.785 193.84C171.513 193.568 171.377 193.248 171.377 192.88C171.377 192.496 171.513 192.168 171.785 191.896C172.057 191.624 172.377 191.488 172.745 191.488C173.129 191.488 173.457 191.624 173.729 191.896C174.001 192.168 174.137 192.496 174.137 192.88C174.137 193.248 174.001 193.568 173.729 193.84C173.457 194.096 173.129 194.224 172.745 194.224ZM171.689 198.184H173.825V211H171.689V198.184ZM188.466 191.8V211H186.81L186.57 209.92C185.402 210.928 184.114 211.432 182.706 211.432C181.666 211.432 180.738 211.176 179.922 210.664C179.122 210.136 178.498 209.376 178.05 208.384C177.602 207.392 177.378 206.2 177.378 204.808C177.378 202.472 177.97 200.712 179.154 199.528C180.354 198.344 181.946 197.752 183.93 197.752C184.826 197.752 185.626 197.888 186.33 198.16V191.8H188.466ZM179.562 204.808C179.562 206.536 179.874 207.792 180.498 208.576C181.138 209.36 181.922 209.752 182.85 209.752C183.522 209.752 184.114 209.648 184.626 209.44C185.138 209.232 185.706 208.896 186.33 208.432V199.816C185.658 199.544 184.89 199.408 184.026 199.408C182.522 199.408 181.402 199.896 180.666 200.872C179.93 201.832 179.562 203.144 179.562 204.808ZM203.575 210.976C202.999 211.184 202.423 211.296 201.847 211.312C201.207 211.312 200.679 211.184 200.263 210.928C199.863 210.672 199.615 210.224 199.519 209.584C197.999 210.752 196.591 211.336 195.295 211.336C194.287 211.336 193.463 211.048 192.823 210.472C192.183 209.88 191.863 209.144 191.863 208.264C191.863 207.448 192.087 206.776 192.535 206.248C192.983 205.704 193.607 205.256 194.407 204.904C195.223 204.552 196.319 204.176 197.695 203.776L199.471 203.272V202.336C199.471 200.416 198.743 199.456 197.287 199.456C196.487 199.456 195.751 199.624 195.079 199.96C194.407 200.28 193.647 200.888 192.799 201.784L191.911 200.44C193.703 198.648 195.631 197.752 197.695 197.752C199.071 197.752 200.063 198.112 200.671 198.832C201.295 199.552 201.607 200.752 201.607 202.432V208.696C201.607 209.048 201.671 209.304 201.799 209.464C201.927 209.608 202.127 209.68 202.399 209.68C202.639 209.68 202.983 209.6 203.431 209.44L203.575 210.976ZM193.999 208.096C193.999 208.64 194.159 209.04 194.479 209.296C194.799 209.552 195.223 209.68 195.751 209.68C196.295 209.68 196.855 209.544 197.431 209.272C198.023 209 198.703 208.584 199.471 208.024V204.688L198.103 205.096C196.583 205.56 195.519 206.008 194.911 206.44C194.303 206.872 193.999 207.424 193.999 208.096ZM216.239 191.8V211H214.583L214.343 209.92C213.175 210.928 211.887 211.432 210.479 211.432C209.439 211.432 208.511 211.176 207.695 210.664C206.895 210.136 206.271 209.376 205.823 208.384C205.375 207.392 205.151 206.2 205.151 204.808C205.151 202.472 205.743 200.712 206.927 199.528C208.127 198.344 209.719 197.752 211.703 197.752C212.599 197.752 213.399 197.888 214.103 198.16V191.8H216.239ZM207.335 204.808C207.335 206.536 207.647 207.792 208.271 208.576C208.911 209.36 209.695 209.752 210.623 209.752C211.295 209.752 211.887 209.648 212.399 209.44C212.911 209.232 213.479 208.896 214.103 208.432V199.816C213.431 199.544 212.663 199.408 211.799 199.408C210.295 199.408 209.175 199.896 208.439 200.872C207.703 201.832 207.335 203.144 207.335 204.808ZM225.78 209.776C226.58 209.776 227.3 209.6 227.94 209.248C228.58 208.896 229.196 208.416 229.788 207.808L230.604 209.152C229.964 209.872 229.244 210.432 228.444 210.832C227.66 211.232 226.764 211.432 225.756 211.432C224.412 211.432 223.276 211.128 222.348 210.52C221.436 209.896 220.748 209.072 220.284 208.048C219.836 207.008 219.612 205.864 219.612 204.616C219.612 203.336 219.836 202.176 220.284 201.136C220.748 200.096 221.444 199.272 222.372 198.664C223.3 198.056 224.428 197.752 225.756 197.752C226.684 197.752 227.516 197.944 228.252 198.328C229.004 198.696 229.588 199.24 230.004 199.96C230.42 200.68 230.628 201.528 230.628 202.504C230.628 202.872 230.572 203.352 230.46 203.944H221.796C221.78 204.088 221.772 204.296 221.772 204.568C221.772 206.152 222.108 207.416 222.78 208.36C223.468 209.304 224.468 209.776 225.78 209.776ZM225.684 199.336C224.74 199.336 223.956 199.608 223.332 200.152C222.724 200.696 222.292 201.44 222.036 202.384H228.516V202.192C228.516 201.264 228.236 200.56 227.676 200.08C227.132 199.584 226.468 199.336 225.684 199.336ZM246.748 199.768C245.98 199.768 245.244 199.904 244.54 200.176C243.852 200.432 243.076 200.912 242.212 201.616V211H240.076V198.184H241.732L242.116 199.912C242.9 199.128 243.66 198.576 244.396 198.256C245.148 197.936 245.932 197.776 246.748 197.776V199.768ZM260.317 210.976C259.741 211.184 259.165 211.296 258.589 211.312C257.949 211.312 257.421 211.184 257.005 210.928C256.605 210.672 256.357 210.224 256.261 209.584C254.741 210.752 253.333 211.336 252.037 211.336C251.029 211.336 250.205 211.048 249.565 210.472C248.925 209.88 248.605 209.144 248.605 208.264C248.605 207.448 248.829 206.776 249.277 206.248C249.725 205.704 250.349 205.256 251.149 204.904C251.965 204.552 253.061 204.176 254.437 203.776L256.213 203.272V202.336C256.213 200.416 255.485 199.456 254.029 199.456C253.229 199.456 252.493 199.624 251.821 199.96C251.149 200.28 250.389 200.888 249.541 201.784L248.653 200.44C250.445 198.648 252.373 197.752 254.437 197.752C255.813 197.752 256.805 198.112 257.413 198.832C258.037 199.552 258.349 200.752 258.349 202.432V208.696C258.349 209.048 258.413 209.304 258.541 209.464C258.669 209.608 258.869 209.68 259.141 209.68C259.381 209.68 259.725 209.6 260.173 209.44L260.317 210.976ZM250.741 208.096C250.741 208.64 250.901 209.04 251.221 209.296C251.541 209.552 251.965 209.68 252.493 209.68C253.037 209.68 253.597 209.544 254.173 209.272C254.765 209 255.445 208.584 256.213 208.024V204.688L254.845 205.096C253.325 205.56 252.261 206.008 251.653 206.44C251.045 206.872 250.741 207.424 250.741 208.096ZM268.782 197.752C269.838 197.752 270.766 198.016 271.566 198.544C272.366 199.056 272.99 199.816 273.438 200.824C273.886 201.816 274.11 202.992 274.11 204.352C274.11 206.672 273.51 208.432 272.31 209.632C271.11 210.832 269.526 211.432 267.558 211.432C266.71 211.432 265.91 211.288 265.158 211V216.664H263.022V198.136H264.678L264.918 199.216C266.054 198.24 267.342 197.752 268.782 197.752ZM267.462 209.776C268.982 209.776 270.102 209.288 270.822 208.312C271.558 207.336 271.926 206 271.926 204.304C271.926 202.608 271.606 201.376 270.966 200.608C270.342 199.824 269.566 199.432 268.638 199.432C267.95 199.432 267.342 199.536 266.814 199.744C266.302 199.936 265.75 200.256 265.158 200.704V209.32C265.846 209.624 266.614 209.776 267.462 209.776ZM278.683 194.224C278.315 194.224 277.995 194.096 277.723 193.84C277.451 193.568 277.315 193.248 277.315 192.88C277.315 192.496 277.451 192.168 277.723 191.896C277.995 191.624 278.315 191.488 278.683 191.488C279.067 191.488 279.395 191.624 279.667 191.896C279.939 192.168 280.075 192.496 280.075 192.88C280.075 193.248 279.939 193.568 279.667 193.84C279.395 194.096 279.067 194.224 278.683 194.224ZM277.627 198.184H279.763V211H277.627V198.184ZM294.404 191.8V211H292.748L292.508 209.92C291.34 210.928 290.052 211.432 288.644 211.432C287.604 211.432 286.676 211.176 285.86 210.664C285.06 210.136 284.436 209.376 283.988 208.384C283.54 207.392 283.316 206.2 283.316 204.808C283.316 202.472 283.908 200.712 285.092 199.528C286.292 198.344 287.884 197.752 289.868 197.752C290.764 197.752 291.564 197.888 292.268 198.16V191.8H294.404ZM285.5 204.808C285.5 206.536 285.812 207.792 286.436 208.576C287.076 209.36 287.86 209.752 288.788 209.752C289.46 209.752 290.052 209.648 290.564 209.44C291.076 209.232 291.644 208.896 292.268 208.432V199.816C291.596 199.544 290.828 199.408 289.964 199.408C288.46 199.408 287.34 199.896 286.604 200.872C285.868 201.832 285.5 203.144 285.5 204.808ZM309.512 210.976C308.936 211.184 308.36 211.296 307.784 211.312C307.144 211.312 306.616 211.184 306.2 210.928C305.8 210.672 305.552 210.224 305.456 209.584C303.936 210.752 302.528 211.336 301.232 211.336C300.224 211.336 299.4 211.048 298.76 210.472C298.12 209.88 297.8 209.144 297.8 208.264C297.8 207.448 298.024 206.776 298.472 206.248C298.92 205.704 299.544 205.256 300.344 204.904C301.16 204.552 302.256 204.176 303.632 203.776L305.408 203.272V202.336C305.408 200.416 304.68 199.456 303.224 199.456C302.424 199.456 301.688 199.624 301.016 199.96C300.344 200.28 299.584 200.888 298.736 201.784L297.848 200.44C299.64 198.648 301.568 197.752 303.632 197.752C305.008 197.752 306 198.112 306.608 198.832C307.232 199.552 307.544 200.752 307.544 202.432V208.696C307.544 209.048 307.608 209.304 307.736 209.464C307.864 209.608 308.064 209.68 308.336 209.68C308.576 209.68 308.92 209.6 309.368 209.44L309.512 210.976ZM299.936 208.096C299.936 208.64 300.096 209.04 300.416 209.296C300.736 209.552 301.16 209.68 301.688 209.68C302.232 209.68 302.792 209.544 303.368 209.272C303.96 209 304.64 208.584 305.408 208.024V204.688L304.04 205.096C302.52 205.56 301.456 206.008 300.848 206.44C300.24 206.872 299.936 207.424 299.936 208.096ZM326.233 197.752C327.593 197.752 328.521 198.12 329.017 198.856C329.529 199.592 329.785 200.664 329.785 202.072V211H327.649V202.264C327.649 201.256 327.497 200.536 327.193 200.104C326.905 199.672 326.401 199.456 325.681 199.456C325.121 199.456 324.553 199.6 323.977 199.888C323.401 200.16 322.753 200.576 322.033 201.136C322.065 201.328 322.081 201.64 322.081 202.072V211H319.945V202.264C319.945 201.256 319.793 200.536 319.489 200.104C319.201 199.672 318.697 199.456 317.977 199.456C317.433 199.456 316.873 199.592 316.297 199.864C315.721 200.136 315.073 200.552 314.353 201.112V211H312.217V198.184H313.873L314.185 199.528C315.721 198.344 317.169 197.752 318.529 197.752C319.409 197.752 320.105 197.912 320.617 198.232C321.129 198.552 321.505 199.016 321.745 199.624C323.345 198.376 324.841 197.752 326.233 197.752ZM339.218 209.776C340.018 209.776 340.738 209.6 341.378 209.248C342.018 208.896 342.634 208.416 343.226 207.808L344.042 209.152C343.402 209.872 342.682 210.432 341.882 210.832C341.098 211.232 340.202 211.432 339.194 211.432C337.85 211.432 336.714 211.128 335.786 210.52C334.874 209.896 334.186 209.072 333.722 208.048C333.274 207.008 333.05 205.864 333.05 204.616C333.05 203.336 333.274 202.176 333.722 201.136C334.186 200.096 334.882 199.272 335.81 198.664C336.738 198.056 337.866 197.752 339.194 197.752C340.122 197.752 340.954 197.944 341.69 198.328C342.442 198.696 343.026 199.24 343.442 199.96C343.858 200.68 344.066 201.528 344.066 202.504C344.066 202.872 344.01 203.352 343.898 203.944H335.234C335.218 204.088 335.21 204.296 335.21 204.568C335.21 206.152 335.546 207.416 336.218 208.36C336.906 209.304 337.906 209.776 339.218 209.776ZM339.122 199.336C338.178 199.336 337.394 199.608 336.77 200.152C336.162 200.696 335.73 201.44 335.474 202.384H341.954V202.192C341.954 201.264 341.674 200.56 341.114 200.08C340.57 199.584 339.906 199.336 339.122 199.336ZM353.994 197.752C355.402 197.752 356.37 198.128 356.898 198.88C357.442 199.616 357.714 200.68 357.714 202.072V211H355.578V202.264C355.578 201.256 355.418 200.536 355.098 200.104C354.778 199.672 354.226 199.456 353.442 199.456C352.85 199.456 352.25 199.592 351.642 199.864C351.034 200.136 350.37 200.552 349.65 201.112V211H347.514V198.184H349.17L349.482 199.528C351.034 198.344 352.538 197.752 353.994 197.752ZM369.315 210.52C368.483 211.048 367.587 211.312 366.627 211.312C365.251 211.312 364.235 210.944 363.579 210.208C362.923 209.456 362.595 208.384 362.595 206.992V199.792H360.555V198.88L362.787 198.256L363.435 195.16H364.731V198.184H368.571V199.792H364.731V206.656C364.731 207.696 364.899 208.456 365.235 208.936C365.571 209.4 366.115 209.632 366.867 209.632C367.235 209.616 367.571 209.56 367.875 209.464C368.195 209.368 368.547 209.216 368.931 209.008L369.315 210.52ZM377.421 209.776C378.221 209.776 378.941 209.6 379.581 209.248C380.221 208.896 380.837 208.416 381.429 207.808L382.245 209.152C381.605 209.872 380.885 210.432 380.085 210.832C379.301 211.232 378.405 211.432 377.397 211.432C376.053 211.432 374.917 211.128 373.989 210.52C373.077 209.896 372.389 209.072 371.925 208.048C371.477 207.008 371.253 205.864 371.253 204.616C371.253 203.336 371.477 202.176 371.925 201.136C372.389 200.096 373.085 199.272 374.013 198.664C374.941 198.056 376.069 197.752 377.397 197.752C378.325 197.752 379.157 197.944 379.893 198.328C380.645 198.696 381.229 199.24 381.645 199.96C382.061 200.68 382.269 201.528 382.269 202.504C382.269 202.872 382.213 203.352 382.101 203.944H373.437C373.421 204.088 373.413 204.296 373.413 204.568C373.413 206.152 373.749 207.416 374.421 208.36C375.109 209.304 376.109 209.776 377.421 209.776ZM377.325 199.336C376.381 199.336 375.597 199.608 374.973 200.152C374.365 200.696 373.933 201.44 373.677 202.384H380.157V202.192C380.157 201.264 379.877 200.56 379.317 200.08C378.773 199.584 378.109 199.336 377.325 199.336Z" fill="#727272"/>
    <path d="M600.488 169.768C600.914 170.072 601.4 170.377 601.825 170.681C602.312 170.985 602.737 171.289 603.223 171.532C603.649 171.776 604.014 172.019 604.439 172.262C604.5 172.323 604.561 172.323 604.621 172.384C606.019 173.236 607.478 174.027 608.937 174.757C609.363 175 609.849 175.243 610.274 175.426C610.274 175.426 610.335 175.487 610.396 175.487C610.882 175.73 611.369 175.973 611.855 176.217C612.827 176.703 613.861 177.129 614.833 177.555C615.319 177.798 615.867 177.981 616.353 178.163C616.839 178.346 617.386 178.589 617.872 178.772C618.359 178.954 618.906 179.198 619.392 179.38C619.392 179.38 619.392 179.38 619.453 179.38C619.939 179.563 620.486 179.745 620.972 179.928C622.067 180.293 623.221 180.658 624.316 181.023C624.68 181.144 625.106 181.266 625.47 181.388C626.625 181.753 627.78 182.057 628.935 182.3C629.361 182.422 629.786 182.483 630.272 182.604C631.367 182.848 632.521 183.091 633.616 183.335C633.859 183.395 634.041 183.395 634.284 183.456C634.649 183.517 635.074 183.578 635.439 183.639C635.986 183.7 636.472 183.821 637.019 183.882C637.263 183.943 637.506 183.943 637.749 184.004C638.053 184.065 638.418 184.125 638.782 184.125C639.755 184.247 640.788 184.369 641.761 184.49C642.065 184.551 642.429 184.551 642.733 184.612H642.794C643.219 184.673 643.645 184.673 644.07 184.734C644.496 184.795 644.921 184.795 645.347 184.795C645.59 184.795 645.894 184.855 646.137 184.855C646.623 184.855 647.049 184.916 647.474 184.916C648.082 184.916 648.629 184.977 649.237 184.977C649.845 184.977 650.392 184.977 651 184.977C651.425 184.977 651.851 184.977 652.276 184.977C677.927 184.612 700.965 173.722 717.437 156.445C717.437 156.445 717.437 156.384 717.498 156.384C719.321 154.742 717.741 145.981 710.386 140.445C701.147 133.449 679.021 129.069 679.021 129.069C679.021 129.069 670.451 127.67 638.661 134.301C620.061 138.194 605.898 143.852 597.996 159.183C596.355 162.346 594.714 167.213 600.488 169.768Z" fill="white"/>
    <path d="M638.478 133.632C626.808 136.004 614.347 138.559 604.743 146.286C601.521 148.902 599.394 152.734 597.631 156.445C596.78 158.27 595.929 160.156 595.261 162.164C594.896 163.502 594.349 165.023 594.653 166.605C594.714 167.031 595.078 167.578 595.382 167.882C596.78 169.281 598.3 170.133 599.819 171.228C608.755 177.433 619.027 181.814 629.665 184.125C653.37 189.296 679.021 185.281 699.87 172.81C706.8 168.612 713.182 163.502 718.653 157.479C719.261 156.749 719.261 155.533 719.261 154.742C719.2 152.917 718.714 151.152 718.106 149.51C716.647 145.738 714.763 141.966 711.541 139.35C709.231 137.769 706.739 136.43 704.186 135.335C696.163 131.928 687.714 129.556 679.021 128.582C678.292 128.522 678.17 129.556 678.9 129.677C687.227 131.381 695.494 133.936 703.214 137.404C706.01 138.803 708.988 140.02 711.237 142.21C713.365 144.521 714.884 147.381 716.1 150.301C716.89 152.065 717.437 154.863 717.194 156.263C713.365 160.825 708.867 164.84 704.004 168.308C677.38 186.924 636.959 188.141 608.633 172.627C606.08 171.228 603.588 169.646 601.217 168.004C600.063 167.213 598.847 166.544 597.935 165.631C597.874 165.571 597.935 165.631 597.935 165.692C597.935 165.753 597.996 165.814 597.996 165.814C597.935 165.084 598.178 164.11 598.482 163.137C599.576 159.609 601.339 155.898 603.223 152.673C606.202 147.867 611.247 144.826 616.353 142.392C619.878 140.75 623.586 139.472 627.355 138.255C631.123 137.039 634.953 136.004 638.782 135.092C639.755 134.848 639.451 133.449 638.478 133.632Z" fill="black"/>
    <path d="M688.747 130.955C686.619 134.727 678.535 149.875 677.259 163.259L669.721 165.814C669.721 165.814 675.435 140.506 685.647 128.765C685.647 128.765 686.863 128.217 688.382 129.251C688.868 129.677 689.112 130.346 688.747 130.955Z" fill="black"/>
    <path d="M624.073 163.441C624.073 163.441 623.708 146.59 631.002 135.518C631.184 135.213 630.941 134.788 630.577 134.848C630.09 134.97 629.361 135.153 628.206 135.7C626.261 136.613 619.939 146.285 619.392 162.164C619.392 162.103 623.465 163.441 624.073 163.441Z" fill="black"/>
    <path d="M603.284 147.624C606.445 144.278 615.988 139.289 617.63 139.411C617.569 139.533 617.569 139.715 617.508 139.898C614.955 149.084 617.022 161.555 626.322 163.624C635.986 165.753 644.071 166.057 663.461 164.11C677.684 162.711 691.057 149.936 697.865 137.282C698.533 136.004 699.324 134.727 700.175 133.571C700.661 133.206 701.573 133.267 702.241 133.814C703.943 135.213 706.192 135.092 706.192 136.43C706.192 136.43 719.079 140.445 723.577 168.734C726.13 184.734 729.716 205.479 729.837 212.536H591.432C592.404 203.045 591.432 160.764 603.284 147.624Z" fill="black"/>
    <path d="M604.439 148.719C606.263 146.894 608.633 145.495 610.882 144.156C612.949 142.939 615.502 141.601 617.629 140.993L616.231 139.046L616.17 139.411C614.468 146.529 614.833 154.985 619.757 160.825C621.459 162.772 623.951 164.171 626.504 164.597C631.245 165.57 636.168 166.118 641.031 166.118C649.541 166.057 657.929 165.388 666.317 164.232C672.274 162.954 677.806 159.973 682.608 156.262C689.355 151.031 694.521 144.156 699.323 137.16C699.992 136.187 700.782 135.274 701.633 134.483L701.329 134.848C701.208 134.97 701.147 134.909 701.208 134.909C701.208 134.909 701.329 134.909 701.39 134.97C701.451 134.97 701.451 134.97 701.512 135.092C702.484 135.943 704.065 136.369 705.037 136.917C704.976 136.917 704.855 136.552 704.855 136.491L705.949 137.951L706.131 138.012L706.374 138.133C714.702 142.635 718.714 153.342 720.902 162.103C723.029 172.08 724.306 182.361 726.008 192.399C726.98 199.091 728.196 205.965 728.5 212.596L730.08 211.015H591.431L592.951 212.718C594.227 195.867 593.559 161.677 604.439 148.719ZM602.129 146.59C590.398 160.278 591.127 194.65 589.851 212.414C589.79 213.266 590.398 214.056 591.249 214.117C591.31 214.239 729.776 214.056 729.837 214.117C730.688 214.117 731.417 213.448 731.417 212.596C731.296 209.007 730.81 205.539 730.384 202.133C728.986 191.912 727.284 181.753 725.643 171.593C724.61 164.779 723.212 157.783 720.476 151.335C717.741 144.947 713.668 138.255 707.104 135.152C706.982 135.092 706.861 135.031 706.678 134.97L707.772 136.43C707.833 134.301 705.523 133.753 704.065 133.145C703.092 132.597 702.302 131.806 701.086 131.806C700.478 131.746 699.384 131.989 698.898 132.719C698.047 134.422 697.317 136.126 696.588 137.829C695.372 140.567 693.792 143.122 691.968 145.495C685.404 153.829 676.529 161.129 665.953 163.259C662.427 163.867 658.78 163.989 655.255 164.293C645.712 164.962 636.108 165.084 626.808 162.772C624.619 162.285 622.735 161.129 621.337 159.426C617.204 154.194 617.204 146.529 619.027 140.323L619.149 139.837C619.453 138.924 618.723 137.89 617.751 137.89C615.988 137.951 614.651 138.803 613.07 139.472C609.18 141.419 605.351 143.487 602.129 146.59Z" fill="black"/>
    <path d="M622.613 170.194C632.582 174.452 665.345 175.426 682 166.422C692.515 160.764 699.323 148.293 702.606 143.487C705.037 139.837 706.253 136.43 706.253 136.43C706.253 135.092 703.943 135.213 702.302 133.814C701.633 133.267 700.721 133.206 700.235 133.571C699.384 134.788 698.594 136.004 697.925 137.282C691.117 149.875 680.359 162.529 663.521 164.11C644.131 165.935 636.047 165.753 626.382 163.624C617.082 161.555 615.015 149.084 617.568 139.898C617.629 139.776 617.629 139.594 617.69 139.411C616.049 139.289 612.888 139.594 611.733 142.514C611.672 142.514 606.992 163.563 622.613 170.194Z" fill="white"/>
    <path d="M622.249 171.046C626.261 172.688 630.455 173.296 634.649 173.783C638.843 174.27 643.037 174.452 647.231 174.452C657.747 174.331 668.445 173.357 678.353 169.585C689.659 165.509 696.953 155.228 703.031 145.495C704.855 142.818 706.557 140.08 707.59 136.978C707.894 136.187 707.408 135.092 706.739 134.605C705.827 133.875 704.794 133.875 703.882 133.51C703.274 133.327 702.91 132.962 702.363 132.658C701.39 132.232 700.296 131.867 699.08 132.415C692.09 147.685 680.602 162.285 662.61 163.563C650.696 164.658 638.539 165.874 626.747 163.137C622.006 162.346 618.906 158.088 617.812 153.586C616.596 149.023 616.961 144.095 618.237 139.593C618.359 139.168 618.055 138.742 617.629 138.742C615.016 138.498 611.794 139.654 610.882 142.392C609.849 147.867 609.849 153.464 611.429 158.757C613.01 164.171 617.021 168.916 622.249 171.046ZM622.978 169.342C618.116 167.395 614.529 163.259 612.888 158.331C611.247 153.342 611.065 147.806 612.098 142.635C612.827 140.628 615.38 139.776 617.568 140.08L616.961 139.228C614.894 147.015 615.319 158.209 623.039 162.894C624.133 163.502 625.349 163.928 626.565 164.171C628.935 164.658 631.367 165.084 633.737 165.388C643.402 166.422 653.127 165.631 662.731 164.84C679.204 163.989 691.908 151.031 698.959 137.038C699.445 135.943 699.992 134.909 700.539 133.814L700.418 133.936C701.329 133.388 702.302 134.666 703.153 134.97C703.943 135.396 704.794 135.578 705.463 136.004C705.584 136.126 705.645 136.248 705.645 136.43V136.248C704.247 140.08 701.694 143.548 699.506 146.955C693.974 155.472 687.288 164.049 677.441 167.578C663.704 173.053 637.08 174.391 622.978 169.342Z" fill="black"/>
    <path d="M632.765 149.814C634.042 156.08 642.308 159.852 656.228 154.194C670.694 148.354 676.955 134.423 678.536 130.286C669.965 114.225 675.922 103.092 675.922 103.092C656.167 101.389 638.904 124.506 638.904 124.506L636.23 135.944C635.987 136.917 635.5 137.769 634.771 138.377C633.494 140.628 631.975 145.799 632.765 149.814Z" fill="white"/>
    <path d="M678.839 130.468C677.684 128.704 676.955 126.636 676.469 124.628C675.557 120.43 675.253 116.172 675.192 111.913V110.332C675.375 108.75 675.922 107.107 676.53 105.647C677.32 103.701 674.463 102.484 673.551 104.431C673.43 104.674 673.43 105.1 673.43 105.343C673.247 113.617 672.882 124.263 678.11 131.137C678.475 131.502 679.204 130.955 678.839 130.468Z" fill="black"/>
    <path d="M638.236 124.385C637.324 124.932 637.02 125.662 636.898 126.392C636.534 127.852 636.655 129.434 636.29 130.955C635.987 132.415 635.075 133.814 634.832 135.335C634.528 136.917 633.616 140.263 633.251 141.905C633.13 142.27 633.373 142.696 633.798 142.757C634.041 142.818 634.224 142.757 634.406 142.636C635.196 141.966 635.561 141.297 636.047 140.445C636.838 138.985 637.385 137.647 637.871 136.004C638.296 134.544 638.114 132.963 638.479 131.442C638.783 129.982 639.634 128.582 639.938 127.062C640.12 126.332 640.181 125.541 639.634 124.628C639.269 124.263 638.661 124.141 638.236 124.385Z" fill="black"/>
    <path d="M633.859 140.445C645.469 139.837 654.951 136.187 664.19 119.7C656.41 126.575 647.231 129.191 637.567 130.407L636.29 136.004C636.047 136.978 634.588 139.837 633.859 140.445Z" fill="black"/>
    <path d="M634.345 138.194C632.278 142.088 631.063 146.955 632.339 151.274C633.312 154.316 636.108 156.567 639.147 157.419C646.198 159.304 654.343 156.323 660.604 152.978C668.323 148.658 674.037 141.419 677.684 133.51C677.927 132.902 677.076 132.415 676.712 133.023C675.435 135.579 673.976 138.073 672.335 140.324C670.694 142.635 668.81 144.765 666.682 146.651C660.482 152.247 652.094 155.715 643.706 155.715C635.074 155.472 631.792 150.909 633.798 142.514C634.102 141.175 634.588 139.776 635.257 138.62C635.621 138.134 634.71 137.586 634.345 138.194Z" fill="black"/>
    <path d="M610.822 65.1307C609.728 70.2409 609.181 74.3777 612.159 88.0049C615.077 101.571 607.965 104.37 624.802 126.088C631.671 134.97 648.326 132.476 661.82 123.29C666.379 120.187 668.324 112.218 671.728 106.56C674.402 102.119 675.618 106.742 679.143 102.91C683.945 97.6778 689.72 87.1532 686.863 68.5375C682.243 38.363 658.355 34.8345 640.667 38.1805C622.857 41.5873 613.739 51.686 610.822 65.1307Z" fill="white"/>
    <path d="M676.104 108.324C677.502 105.952 679.326 103.883 681.028 101.693C682.669 99.4421 684.006 96.9478 685.1 94.3927C692.333 76.6287 689.537 51.6252 671.788 41.1615C664.433 36.903 655.559 35.8688 647.292 36.538C629.604 37.8155 613.375 45.9675 609.545 64.7049C607.479 72.9785 610.275 81.4956 611.855 89.5867C612.584 93.6019 611.977 97.7387 612.037 101.876C612.098 106.073 613.253 110.271 614.833 114.164C615.806 116.841 617.508 119.214 619.271 121.404C622.188 124.932 625.106 128.522 628.814 131.259C629.665 131.868 631.184 132.172 632.218 132.293C635.075 132.719 637.871 132.841 640.728 132.658C651.912 132.172 663.886 126.757 668.384 115.929C668.567 115.503 667.959 115.199 667.716 115.564C661.881 124.811 651.182 129.373 640.545 129.982C637.263 130.164 633.92 130.103 630.698 129.434C629.118 128.643 627.72 127.244 626.382 125.966C623.1 122.681 619.757 119.153 617.386 115.138C614.53 109.723 612.949 103.822 613.435 97.6778C613.557 94.9402 613.618 92.081 613.071 89.3434C612.584 86.6057 611.977 83.9898 611.612 81.1914C611.247 78.5146 611.065 75.777 611.065 73.1002C611.369 65.2524 613.922 57.1613 618.906 51.0777C629.908 37.3897 655.924 33.8003 670.573 43.169C679.812 48.8876 684.128 59.5947 685.526 69.9976C687.653 82.4689 687.045 94.7577 677.137 103.822L674.22 106.864C673.065 108.202 675.132 109.784 676.104 108.324Z" fill="black"/>
    <path d="M673.43 97.4345C674.828 96.6436 675.8 95.3052 675.861 93.6627C675.8 92.446 675.618 91.0467 675.922 89.83C676.104 88.6741 677.32 88.37 678.231 88.4308C679.204 88.6133 679.812 89.83 679.994 90.8034C679.994 90.8642 680.055 91.0467 680.055 91.1076C680.116 91.4118 680.602 91.4118 680.724 91.1076C681.514 88.735 679.751 86.119 677.198 86.4232C673.612 86.6666 673.126 90.4384 673.794 93.2977C674.159 94.5144 673.673 95.6094 673.004 96.6436L672.882 96.8261C672.579 97.1911 673.065 97.6778 673.43 97.4345Z" fill="black"/>
    <path d="M624.802 82.5297C623.89 86.849 622.188 90.8642 620.061 94.636C618.177 99.2595 623.039 103.64 627.355 103.457C627.841 103.457 627.902 102.788 627.477 102.666C624.741 101.815 622.249 99.9896 621.824 97.1911C621.641 96.3394 621.885 95.6094 622.31 94.8794C624.316 91.1075 625.532 86.7882 625.228 82.5297C625.228 82.2255 624.802 82.2255 624.802 82.5297Z" fill="black"/>
    <path d="M669.235 89.0392C670.634 85.4499 673.673 82.0431 677.745 82.1039C678.11 82.0431 678.718 82.1647 679.083 82.1647C680.116 82.2256 680.967 82.5906 681.757 83.3206C685.647 87.2141 684.979 94.0885 681.818 98.4079C680.724 99.9288 679.326 101.267 677.745 102.362C676.165 103.457 674.402 104.309 672.518 105.039C672.092 105.161 672.275 105.83 672.7 105.769C676.773 104.917 680.663 102.91 683.337 99.5637C687.471 94.5752 688.322 86.2407 683.398 81.3739C682.304 80.4005 680.784 79.6705 679.265 79.6705C678.779 79.6705 678.049 79.5488 677.563 79.6705C675.01 79.7921 672.579 81.0697 670.998 83.0773C669.6 84.7807 668.81 86.8491 668.567 88.9175C668.567 89.2825 669.114 89.4042 669.235 89.0392Z" fill="black"/>
    <path d="M629.422 109.541C633.312 113.252 640.667 110.271 642.612 105.769C642.855 105.221 642.247 104.735 641.761 104.978C640.727 105.526 639.816 106.073 638.843 106.499C636.047 107.777 633.129 108.811 630.029 108.507C629.422 108.385 628.996 109.115 629.422 109.541Z" fill="black"/>
    <path d="M647.474 88.7349C648.933 88.6741 650.027 87.4574 649.906 85.9973L649.845 84.2939C649.784 82.8339 648.568 81.7388 647.11 81.8605C645.651 81.9213 644.557 83.138 644.678 84.5981L644.739 86.3015C644.8 87.7007 646.015 88.7958 647.474 88.7349Z" fill="black"/>
    <path d="M621.884 89.6475C623.222 89.5867 624.255 88.4308 624.194 87.0924L624.133 85.5107C624.073 84.1723 622.918 83.1381 621.581 83.199C620.243 83.2598 619.21 84.4157 619.271 85.7541L619.331 87.3358C619.392 88.6742 620.547 89.7084 621.884 89.6475Z" fill="black"/>
    <path d="M642.004 85.4498C644.01 84.1114 646.198 83.1989 648.629 83.6856C649.42 83.8072 650.21 84.0506 650.696 84.5981C650.878 84.8414 651.304 84.7806 651.304 84.4156C651.243 83.1989 650.21 82.408 649.237 81.9213C647.353 80.9479 644.739 81.1305 643.037 82.408C642.429 82.773 640.363 85.0239 641.457 85.5106C641.7 85.6323 641.821 85.5715 642.004 85.4498Z" fill="black"/>
    <path d="M624.62 85.754C624.62 83.1989 621.459 82.2864 619.514 83.1989C618.42 83.6856 617.629 84.659 617.325 85.8149C617.204 86.1799 617.751 86.4841 617.994 86.1799C619.027 84.9632 620.79 84.3548 622.188 85.0848C622.614 85.3282 622.674 85.5107 622.796 85.754C622.796 86.9707 624.559 86.9099 624.62 85.754Z" fill="black"/>
    <path d="M639.086 75.4119C637.81 75.8378 636.533 74.6819 636.776 73.2827C636.898 72.5526 637.202 71.8226 637.81 71.2751C639.633 69.6325 647.17 68.1725 651.729 70.3017C655.741 72.2485 644.921 73.4652 639.086 75.4119Z" fill="black"/>
    <path d="M620.911 76.3853C621.945 76.7504 623.039 75.6553 622.857 74.3778C622.796 73.7086 622.553 73.0394 622.066 72.5527C620.608 71.0926 615.623 69.9368 612.462 72.1877C609.727 74.0736 616.17 74.6211 620.911 76.3853Z" fill="black"/>
    <path d="M607.418 50.8343C606.263 47.4883 606.749 43.2298 610.7 37.8763C624.133 19.7472 667.412 26.8042 667.412 26.8042C667.412 26.8042 662.853 28.0209 657.686 30.5151C672.275 29.2376 682.669 32.4011 691.969 31.4277C691.969 31.4277 687.775 36.2945 678.171 40.2489C687.592 43.7165 695.19 51.5035 701.877 68.9025C701.877 68.9025 697.318 66.0432 689.841 63.4881C694.157 79.4879 688.261 91.655 683.884 99.2595C681.271 104.005 679.812 106.134 677.928 109.48C675.314 114.164 673.855 118.97 673.855 118.97C673.247 108.142 674.706 104.735 674.706 104.735C689.902 98.8945 687.167 81.9213 679.751 80.948C671.971 79.9746 669.539 86.9099 669.114 88.6133C667.655 86.9099 668.992 80.4004 668.749 73.7693C667.655 91.29 657.99 108.689 657.99 108.689C657.99 108.689 660.422 69.2675 651.061 61.2372C650.879 61.0547 650.635 60.8722 650.453 60.7505C652.459 72.1876 647.353 77.2978 647.353 77.2978C646.988 66.0432 644.253 60.6897 640.788 58.5604C637.81 59.4729 634.71 60.568 631.306 61.4197C629.422 61.9064 627.416 62.3322 625.288 62.6364C624.924 62.6972 624.559 62.6972 624.194 62.6972C620.243 62.6972 616.475 60.0813 613.618 60.568C612.645 60.7505 611.916 61.4805 611.612 62.4539C611.369 63.3664 611.126 64.279 610.882 65.2523C609.91 69.5717 607.661 104.248 607.296 101.024C606.141 92.1417 585.11 62.5147 607.418 50.8343Z" fill="black"/>
    <path d="M637.627 96.2785C640.423 96.3394 649.054 96.4002 651.729 96.4611C656.349 96.5219 659.813 92.5067 659.388 87.9441C659.327 86.4232 659.388 84.2939 659.327 82.773C659.205 78.8187 655.68 75.4727 651.729 75.5944L641.456 75.7161C640.666 75.7161 638.417 75.7769 637.627 75.7769C634.345 75.7161 631.245 78.1495 630.515 81.3738C630.272 82.2863 630.333 83.2597 630.333 84.0506V89.2216C630.394 93.0543 633.798 96.3394 637.627 96.2785ZM637.627 94.9402C634.466 95.0618 631.549 92.3242 631.488 89.1608C631.427 87.5182 631.488 85.754 631.488 84.0506C631.123 80.3396 633.919 76.9328 637.688 77.0545C640.301 77.1153 649.054 77.1761 651.79 77.237C655.072 77.237 657.868 80.2179 657.625 83.5031C657.625 83.9289 657.625 85.0239 657.625 85.4498C657.564 86.7882 657.747 89.0999 657.443 90.3166C656.835 92.8717 654.403 94.8185 651.79 94.8185H650.513C648.75 94.8185 639.45 94.9402 637.627 94.9402Z" fill="black"/>
    <path d="M613.131 77.3587L617.933 77.4195C619.27 77.4804 620.851 77.237 622.006 78.0279C623.1 78.7579 623.586 80.0963 623.525 81.3739C623.525 82.9556 623.525 84.5981 623.586 86.1799L623.647 85.9365C622.796 88.9175 621.641 91.7768 619.878 94.271L620.486 93.906C620 94.0277 619.149 94.0277 618.663 94.0277C616.839 94.0885 614.712 94.2102 612.888 94.2102C611.186 94.2102 609.545 92.9326 609.18 91.2292C609.059 90.7426 609.059 89.8909 609.059 89.4042C609.059 86.7882 608.998 84.2331 609.119 81.6172C608.998 79.3054 610.761 77.237 613.131 77.3587ZM613.131 75.5336C609.91 75.5336 607.661 78.6362 608.208 81.678C608.329 84.294 608.268 86.8491 608.268 89.465C607.964 92.5068 609.788 95.2444 612.949 95.4877C614.286 95.5486 615.563 95.5486 616.839 95.6094C617.508 95.6094 619.149 95.7311 619.757 95.7311C620.061 95.7919 620.547 95.7311 620.851 95.7311C621.094 95.7311 621.337 95.5486 621.459 95.3661C623.343 92.5676 624.68 89.465 625.47 86.2407C625.47 84.1723 625.653 82.1039 625.47 80.0355C625.106 77.602 622.917 75.5336 620.425 75.4728C618.723 75.4119 614.833 75.5336 613.131 75.5336Z" fill="black"/>
    <path d="M631.002 81.1305C629.361 80.4005 627.537 80.0963 625.714 80.218C625.106 80.2788 624.498 80.4613 623.951 80.948L623.161 81.6172C622.37 82.2864 623.343 83.4423 624.133 82.7731C625.106 81.9214 626.261 82.043 627.415 82.1039C628.57 82.2256 629.665 82.4689 630.759 82.8947C631.792 83.3206 632.461 81.7997 631.488 81.313L631.002 81.1305Z" fill="black"/>
    <path d="M658.355 83.3206C658.78 84.2939 659.266 84.4156 660.057 84.3548L661.819 84.4156C665.345 84.4156 668.931 84.3548 672.457 83.8072C673.672 83.7464 673.733 82.043 672.517 81.9822L658.416 81.4955C657.99 81.4955 657.686 81.9213 657.868 82.2863L658.355 83.3206Z" fill="black"/>
    <path d="M657.99 100.78C656.288 99.8678 654.647 98.8945 652.763 98.4078C652.58 98.4078 652.459 98.3469 652.094 98.4686C650.818 99.442 654.526 101.875 655.194 102.484C655.012 102.24 655.073 101.815 655.377 101.693C655.437 101.693 655.437 101.632 655.498 101.632C655.62 101.632 655.62 101.632 655.62 101.632C654.1 101.085 652.58 100.476 651.122 99.7462C650.271 99.3812 649.116 98.5903 648.204 98.5295C647.839 98.5295 647.414 98.8945 647.475 99.2595C647.535 99.7462 647.657 99.9287 647.778 100.233C647.9 100.476 648.143 100.841 648.204 101.085C648.204 101.145 648.265 101.024 648.265 101.024C648.265 101.085 647.9 101.085 647.839 101.024C646.867 100.902 645.833 100.537 644.861 100.172C644.678 100.111 644.557 100.355 644.739 100.476C645.773 101.145 646.867 101.875 648.204 101.997C649.055 102.058 649.48 101.267 649.177 100.537C649.055 100.111 648.751 99.6245 648.629 99.2595C648.629 99.3812 648.508 99.5637 648.386 99.6245C648.265 99.6853 648.204 99.6245 648.265 99.6853C648.873 99.8678 650.088 100.537 650.635 100.78C652.216 101.51 653.735 102.18 655.437 102.666C655.559 102.666 655.559 102.727 655.741 102.666C656.227 102.605 656.349 101.997 655.984 101.693C655.255 101.085 654.404 100.598 653.735 99.9895C653.371 99.6853 652.945 99.2595 652.702 98.8945C652.702 98.9553 652.641 99.077 652.58 99.1378C653.127 99.1987 654.222 99.5028 654.89 99.807C655.863 100.172 656.896 100.598 657.869 101.024C657.99 101.145 658.173 100.841 657.99 100.78Z" fill="black"/>
    <path d="M618.602 100.78C618.055 100.172 615.745 97.2519 615.137 98.7728C615.137 98.8945 615.137 99.0161 615.137 99.077C615.38 100.294 616.171 101.328 616.778 102.362C616.657 102.058 616.9 101.632 617.204 101.571C617.325 101.571 617.386 101.571 617.447 101.571C617.508 101.571 617.447 101.571 617.386 101.51C616.171 100.72 615.259 99.7462 614.043 98.8945C613.8 98.7728 613.496 98.5903 613.192 98.7728C612.888 99.0161 612.949 99.3812 613.071 99.6245C613.192 99.9287 613.314 100.172 613.435 100.476C613.496 100.537 613.557 100.598 613.678 100.537C613.739 100.537 613.739 100.476 613.739 100.415C613.739 100.294 613.739 99.5028 613.739 99.3812C613.8 99.2595 613.739 99.3203 613.739 99.3812C613.739 99.442 613.618 99.5637 613.496 99.5637C613.435 99.5637 613.314 99.5637 613.314 99.5637C614.347 100.78 615.563 101.936 616.961 102.727C617.386 102.91 617.873 102.545 617.812 102.058C617.812 101.997 617.751 101.875 617.69 101.815C617.265 101.206 616.778 100.598 616.414 99.9895C616.231 99.6853 615.988 99.2595 615.927 98.9553C615.927 99.077 615.684 99.2595 615.624 99.1986C616.596 99.5637 617.447 100.355 618.298 100.963C618.541 101.145 618.723 100.902 618.602 100.78Z" fill="black"/>
    </svg>
    