<svg width="186" height="255" viewBox="0 0 186 255" fill="none" xmlns="http://www.w3.org/2000/svg">
    <path d="M42.4881 169.768C42.9136 170.072 43.3999 170.377 43.8254 170.681C44.3117 170.985 44.7371 171.289 45.2234 171.532C45.6489 171.776 46.0136 172.019 46.4391 172.262C46.4999 172.323 46.5607 172.323 46.6215 172.384C48.0195 173.236 49.4783 174.027 50.9371 174.757C51.3626 175 51.8489 175.243 52.2744 175.426C52.2744 175.426 52.3352 175.487 52.396 175.487C52.8822 175.73 53.3685 175.973 53.8548 176.217C54.8273 176.703 55.8607 177.129 56.8332 177.555C57.3195 177.798 57.8666 177.981 58.3528 178.163C58.8391 178.346 59.3862 178.589 59.8724 178.772C60.3587 178.954 60.9058 179.198 61.392 179.38C61.392 179.38 61.392 179.38 61.4528 179.38C61.9391 179.563 62.4862 179.745 62.9724 179.928C64.0666 180.293 65.2215 180.658 66.3156 181.023C66.6803 181.144 67.1058 181.266 67.4705 181.388C68.6254 181.753 69.7803 182.057 70.9352 182.3C71.3607 182.422 71.7862 182.483 72.2724 182.604C73.3665 182.848 74.5215 183.091 75.6156 183.335C75.8587 183.395 76.0411 183.395 76.2842 183.456C76.6489 183.517 77.0744 183.578 77.4391 183.639C77.9862 183.7 78.4724 183.821 79.0195 183.882C79.2626 183.943 79.5058 183.943 79.7489 184.004C80.0528 184.065 80.4175 184.125 80.7822 184.125C81.7548 184.247 82.7881 184.369 83.7607 184.49C84.0646 184.551 84.4293 184.551 84.7332 184.612H84.794C85.2195 184.673 85.645 184.673 86.0705 184.734C86.496 184.795 86.9214 184.795 87.3469 184.795C87.5901 184.795 87.894 184.855 88.1371 184.855C88.6234 184.855 89.0489 184.916 89.4744 184.916C90.0822 184.916 90.6293 184.977 91.2371 184.977C91.845 184.977 92.392 184.977 92.9999 184.977C93.4254 184.977 93.8509 184.977 94.2764 184.977C119.927 184.612 142.965 173.722 159.437 156.445C159.437 156.445 159.437 156.384 159.498 156.384C161.321 154.742 159.741 145.981 152.386 140.445C143.147 133.449 121.021 129.069 121.021 129.069C121.021 129.069 112.451 127.67 80.6607 134.301C62.0607 138.194 47.8979 143.852 39.996 159.183C38.3548 162.346 36.7136 167.213 42.4881 169.768Z" fill="white"/>
    <path d="M80.4783 133.632C68.8077 136.004 56.3469 138.559 46.743 146.286C43.5214 148.902 41.394 152.734 39.6312 156.445C38.7802 158.27 37.9293 160.156 37.2606 162.164C36.8959 163.502 36.3489 165.023 36.6528 166.605C36.7136 167.031 37.0783 167.578 37.3822 167.882C38.7802 169.281 40.2998 170.133 41.8195 171.228C50.7547 177.433 61.0273 181.814 71.6645 184.125C95.3704 189.296 121.021 185.281 141.87 172.81C148.8 168.612 155.182 163.502 160.653 157.479C161.261 156.749 161.261 155.533 161.261 154.742C161.2 152.917 160.714 151.152 160.106 149.51C158.647 145.738 156.763 141.966 153.541 139.35C151.231 137.769 148.739 136.43 146.186 135.335C138.163 131.928 129.714 129.556 121.021 128.582C120.292 128.522 120.17 129.556 120.9 129.677C129.227 131.381 137.494 133.936 145.214 137.404C148.01 138.803 150.988 140.02 153.237 142.21C155.365 144.521 156.884 147.381 158.1 150.301C158.89 152.065 159.437 154.863 159.194 156.263C155.365 160.825 150.867 164.84 146.004 168.308C119.38 186.924 78.9587 188.141 50.6332 172.627C48.0802 171.228 45.5881 169.646 43.2175 168.004C42.0626 167.213 40.8469 166.544 39.9351 165.631C39.8744 165.571 39.9351 165.631 39.9351 165.692C39.9351 165.753 39.9959 165.814 39.9959 165.814C39.9351 165.084 40.1783 164.11 40.4822 163.137C41.5763 159.609 43.3391 155.898 45.2234 152.673C48.2018 147.867 53.2469 144.826 58.3528 142.392C61.8783 140.75 65.5861 139.472 69.3547 138.255C73.1234 137.039 76.9528 136.004 80.7822 135.092C81.7547 134.848 81.4508 133.449 80.4783 133.632Z" fill="black"/>
    <path d="M130.747 130.955C128.619 134.727 120.535 149.875 119.259 163.259L111.721 165.814C111.721 165.814 117.435 140.506 127.647 128.765C127.647 128.765 128.863 128.217 130.382 129.251C130.868 129.677 131.112 130.346 130.747 130.955Z" fill="black"/>
    <path d="M66.0727 163.441C66.0727 163.441 65.708 146.59 73.0021 135.518C73.1844 135.213 72.9413 134.788 72.5766 134.848C72.0903 134.97 71.3609 135.153 70.206 135.7C68.2609 136.613 61.9393 146.285 61.3923 162.164C61.3923 162.103 65.4648 163.441 66.0727 163.441Z" fill="black"/>
    <path d="M45.2845 147.624C48.4452 144.278 57.9884 139.289 59.6296 139.411C59.5688 139.533 59.5688 139.715 59.508 139.898C56.955 149.084 59.0217 161.555 68.3217 163.624C77.9864 165.753 86.0707 166.057 105.461 164.11C119.684 162.711 133.057 149.936 139.865 137.282C140.533 136.004 141.324 134.727 142.175 133.571C142.661 133.206 143.573 133.267 144.241 133.814C145.943 135.213 148.192 135.092 148.192 136.43C148.192 136.43 161.079 140.445 165.577 168.734C168.13 184.734 171.716 205.479 171.837 212.536H33.4315C34.4041 203.045 33.4315 160.764 45.2845 147.624Z" fill="black"/>
    <path d="M46.439 148.719C48.2626 146.894 50.6332 145.495 52.8822 144.156C54.9488 142.939 57.5018 141.601 59.6292 140.993L58.2312 139.046L58.1704 139.411C56.4685 146.529 56.8332 154.985 61.7567 160.825C63.4587 162.772 65.9508 164.171 68.5037 164.597C73.2449 165.57 78.1685 166.118 83.0312 166.118C91.541 166.057 99.9292 165.388 108.317 164.232C114.274 162.954 119.806 159.973 124.608 156.262C131.355 151.031 136.521 144.156 141.323 137.16C141.992 136.187 142.782 135.274 143.633 134.483L143.329 134.848C143.208 134.97 143.147 134.909 143.208 134.909C143.208 134.909 143.329 134.909 143.39 134.97C143.451 134.97 143.451 134.97 143.512 135.092C144.484 135.943 146.065 136.369 147.037 136.917C146.976 136.917 146.855 136.552 146.855 136.491L147.949 137.951L148.131 138.012L148.374 138.133C156.702 142.635 160.714 153.342 162.902 162.103C165.029 172.08 166.306 182.361 168.008 192.399C168.98 199.091 170.196 205.965 170.5 212.596L172.08 211.015H33.4312L34.9508 212.718C36.2273 195.867 35.5586 161.677 46.439 148.719ZM44.1292 146.59C32.3979 160.278 33.1273 194.65 31.8508 212.414C31.79 213.266 32.3979 214.056 33.2488 214.117C33.3096 214.239 171.776 214.056 171.837 214.117C172.688 214.117 173.417 213.448 173.417 212.596C173.296 209.007 172.81 205.539 172.384 202.133C170.986 191.912 169.284 181.753 167.643 171.593C166.61 164.779 165.212 157.783 162.476 151.335C159.741 144.947 155.668 138.255 149.104 135.152C148.982 135.092 148.861 135.031 148.678 134.97L149.772 136.43C149.833 134.301 147.523 133.753 146.065 133.145C145.092 132.597 144.302 131.806 143.086 131.806C142.478 131.746 141.384 131.989 140.898 132.719C140.047 134.422 139.317 136.126 138.588 137.829C137.372 140.567 135.792 143.122 133.968 145.495C127.404 153.829 118.529 161.129 107.953 163.259C104.427 163.867 100.78 163.989 97.2547 164.293C87.7116 164.962 78.1077 165.084 68.8077 162.772C66.6194 162.285 64.7351 161.129 63.3371 159.426C59.2037 154.194 59.2037 146.529 61.0273 140.323L61.1488 139.837C61.4528 138.924 60.7234 137.89 59.7508 137.89C57.9881 137.951 56.6508 138.803 55.0704 139.472C51.1802 141.419 47.3508 143.487 44.1292 146.59Z" fill="black"/>
    <path d="M64.6135 170.194C74.5821 174.452 107.345 175.426 124 166.422C134.515 160.764 141.323 148.293 144.606 143.487C147.037 139.837 148.253 136.43 148.253 136.43C148.253 135.092 145.943 135.213 144.302 133.814C143.633 133.267 142.721 133.206 142.235 133.571C141.384 134.788 140.594 136.004 139.925 137.282C133.117 149.875 122.359 162.529 105.521 164.11C86.1311 165.935 78.0468 165.753 68.3821 163.624C59.0821 161.555 57.0154 149.084 59.5684 139.898C59.6292 139.776 59.6291 139.594 59.6899 139.411C58.0488 139.289 54.888 139.594 53.7331 142.514C53.6723 142.514 48.9919 163.563 64.6135 170.194Z" fill="white"/>
    <path d="M64.2489 171.046C68.2606 172.688 72.4548 173.296 76.6489 173.783C80.843 174.27 85.0371 174.452 89.2312 174.452C99.7469 174.331 110.445 173.357 120.353 169.585C131.659 165.509 138.953 155.228 145.031 145.495C146.855 142.818 148.557 140.08 149.59 136.978C149.894 136.187 149.408 135.092 148.739 134.605C147.827 133.875 146.794 133.875 145.882 133.51C145.274 133.327 144.91 132.962 144.363 132.658C143.39 132.232 142.296 131.867 141.08 132.415C134.09 147.685 122.602 162.285 104.61 163.563C92.6959 164.658 80.5391 165.874 68.7469 163.137C64.0057 162.346 60.9057 158.088 59.8116 153.586C58.5959 149.023 58.9606 144.095 60.2371 139.593C60.3587 139.168 60.0548 138.742 59.6293 138.742C57.0155 138.498 53.794 139.654 52.8822 142.392C51.8489 147.867 51.8489 153.464 53.4293 158.757C55.0097 164.171 59.0214 168.916 64.2489 171.046ZM64.9783 169.342C60.1155 167.395 56.5293 163.259 54.8881 158.331C53.2469 153.342 53.0646 147.806 54.0979 142.635C54.8273 140.628 57.3802 139.776 59.5685 140.08L58.9606 139.228C56.894 147.015 57.3195 158.209 65.0391 162.894C66.1332 163.502 67.3489 163.928 68.5646 164.171C70.9352 164.658 73.3665 165.084 75.7371 165.388C85.4018 166.422 95.1273 165.631 104.731 164.84C121.204 163.989 133.908 151.031 140.959 137.038C141.445 135.943 141.992 134.909 142.539 133.814L142.418 133.936C143.329 133.388 144.302 134.666 145.153 134.97C145.943 135.396 146.794 135.578 147.463 136.004C147.584 136.126 147.645 136.248 147.645 136.43V136.248C146.247 140.08 143.694 143.548 141.506 146.955C135.974 155.472 129.288 164.049 119.441 167.578C105.704 173.053 79.0802 174.391 64.9783 169.342Z" fill="black"/>
    <path d="M74.7651 149.814C76.0415 156.08 84.3082 159.852 98.2278 154.194C112.694 148.354 118.955 134.423 120.536 130.286C111.965 114.225 117.922 103.092 117.922 103.092C98.167 101.389 80.9043 124.506 80.9043 124.506L78.2298 135.944C77.9866 136.917 77.5003 137.769 76.7709 138.377C75.4945 140.628 73.9749 145.799 74.7651 149.814Z" fill="white"/>
    <path d="M120.839 130.468C119.684 128.704 118.955 126.636 118.469 124.628C117.557 120.43 117.253 116.172 117.192 111.913V110.332C117.375 108.75 117.922 107.107 118.53 105.647C119.32 103.701 116.463 102.484 115.551 104.431C115.43 104.674 115.43 105.1 115.43 105.343C115.247 113.617 114.882 124.263 120.11 131.137C120.475 131.502 121.204 130.955 120.839 130.468Z" fill="black"/>
    <path d="M80.2356 124.385C79.3238 124.932 79.0199 125.662 78.8983 126.392C78.5336 127.852 78.6552 129.434 78.2905 130.955C77.9866 132.415 77.0748 133.814 76.8317 135.335C76.5277 136.917 75.616 140.263 75.2513 141.905C75.1297 142.27 75.3728 142.696 75.7983 142.757C76.0415 142.818 76.2238 142.757 76.4062 142.636C77.1964 141.966 77.5611 141.297 78.0473 140.445C78.8375 138.985 79.3846 137.647 79.8709 136.004C80.2964 134.544 80.114 132.963 80.4787 131.442C80.7826 129.982 81.6336 128.582 81.9375 127.062C82.1199 126.332 82.1807 125.541 81.6336 124.628C81.2689 124.263 80.6611 124.141 80.2356 124.385Z" fill="black"/>
    <path d="M75.8589 140.445C87.4687 139.837 96.9511 136.187 106.19 119.7C98.4099 126.575 89.2315 129.191 79.5668 130.407L78.2903 136.004C78.0472 136.978 76.5884 139.837 75.8589 140.445Z" fill="black"/>
    <path d="M76.345 138.194C74.2783 142.088 73.0626 146.955 74.3391 151.274C75.3116 154.316 78.1077 156.567 81.1469 157.419C88.1979 159.304 96.343 156.323 102.604 152.978C110.323 148.658 116.037 141.419 119.684 133.51C119.927 132.902 119.076 132.415 118.712 133.023C117.435 135.579 115.976 138.073 114.335 140.324C112.694 142.635 110.81 144.765 108.682 146.651C102.482 152.247 94.094 155.715 85.7057 155.715C77.0744 155.472 73.792 150.909 75.7979 142.514C76.1018 141.175 76.5881 139.776 77.2567 138.62C77.6214 138.134 76.7097 137.586 76.345 138.194Z" fill="black"/>
    <path d="M52.8217 65.1307C51.7276 70.2409 51.1806 74.3777 54.159 88.0049C57.0766 101.571 49.9649 104.37 66.8021 126.088C73.6707 134.97 90.3256 132.476 103.82 123.29C108.379 120.187 110.324 112.218 113.728 106.56C116.402 102.119 117.618 106.742 121.143 102.91C125.945 97.6778 131.72 87.1532 128.863 68.5375C124.243 38.363 100.355 34.8345 82.6668 38.1805C64.857 41.5873 55.7394 51.686 52.8217 65.1307Z" fill="white"/>
    <path d="M118.104 108.324C119.502 105.952 121.326 103.883 123.028 101.693C124.669 99.4421 126.006 96.9478 127.1 94.3927C134.333 76.6287 131.537 51.6252 113.788 41.1615C106.433 36.903 97.559 35.8688 89.2923 36.538C71.6041 37.8155 55.3746 45.9675 51.5452 64.7049C49.4786 72.9785 52.2746 81.4956 53.855 89.5867C54.5844 93.6019 53.9766 97.7387 54.0374 101.876C54.0982 106.073 55.2531 110.271 56.8335 114.164C57.806 116.841 59.508 119.214 61.2707 121.404C64.1884 124.932 67.106 128.522 70.8139 131.259C71.6648 131.868 73.1845 132.172 74.2178 132.293C77.0746 132.719 79.8707 132.841 82.7276 132.658C93.9119 132.172 105.886 126.757 110.384 115.929C110.567 115.503 109.959 115.199 109.716 115.564C103.881 124.811 93.1825 129.373 82.5452 129.982C79.2629 130.164 75.9197 130.103 72.6982 129.434C71.1178 128.643 69.7197 127.244 68.3825 125.966C65.1001 122.681 61.757 119.153 59.3864 115.138C56.5295 109.723 54.9492 103.822 55.4354 97.6778C55.557 94.9402 55.6178 92.081 55.0707 89.3434C54.5844 86.6057 53.9766 83.9898 53.6119 81.1914C53.2472 78.5146 53.0648 75.777 53.0648 73.1002C53.3688 65.2524 55.9217 57.1613 60.906 51.0777C71.908 37.3897 97.9237 33.8003 112.573 43.169C121.812 48.8876 126.128 59.5947 127.526 69.9976C129.653 82.4689 129.045 94.7577 119.137 103.822L116.22 106.864C115.065 108.202 117.132 109.784 118.104 108.324Z" fill="black"/>
    <path d="M115.43 97.4345C116.828 96.6436 117.8 95.3052 117.861 93.6627C117.8 92.446 117.618 91.0467 117.922 89.83C118.104 88.6741 119.32 88.37 120.231 88.4308C121.204 88.6133 121.812 89.83 121.994 90.8034C121.994 90.8642 122.055 91.0467 122.055 91.1076C122.116 91.4118 122.602 91.4118 122.724 91.1076C123.514 88.735 121.751 86.119 119.198 86.4232C115.612 86.6666 115.126 90.4384 115.794 93.2977C116.159 94.5144 115.673 95.6094 115.004 96.6436L114.882 96.8261C114.579 97.1911 115.065 97.6778 115.43 97.4345Z" fill="black"/>
    <path d="M66.8022 82.5297C65.8904 86.849 64.1885 90.8642 62.061 94.636C60.1767 99.2595 65.0394 103.64 69.3551 103.457C69.8414 103.457 69.9022 102.788 69.4767 102.666C66.7414 101.815 64.2492 99.9896 63.8237 97.1911C63.6414 96.3394 63.8845 95.6094 64.31 94.8794C66.3159 91.1075 67.5316 86.7882 67.2277 82.5297C67.2277 82.2255 66.8022 82.2255 66.8022 82.5297Z" fill="black"/>
    <path d="M111.235 89.0392C112.634 85.4499 115.673 82.0431 119.745 82.1039C120.11 82.0431 120.718 82.1647 121.083 82.1647C122.116 82.2256 122.967 82.5906 123.757 83.3206C127.647 87.2141 126.979 94.0885 123.818 98.4079C122.724 99.9288 121.326 101.267 119.745 102.362C118.165 103.457 116.402 104.309 114.518 105.039C114.092 105.161 114.275 105.83 114.7 105.769C118.773 104.917 122.663 102.91 125.337 99.5637C129.471 94.5752 130.322 86.2407 125.398 81.3739C124.304 80.4005 122.784 79.6705 121.265 79.6705C120.779 79.6705 120.049 79.5488 119.563 79.6705C117.01 79.7921 114.579 81.0697 112.998 83.0773C111.6 84.7807 110.81 86.8491 110.567 88.9175C110.567 89.2825 111.114 89.4042 111.235 89.0392Z" fill="black"/>
    <path d="M71.4216 109.541C75.3118 113.252 82.6667 110.271 84.6118 105.769C84.8549 105.221 84.2471 104.735 83.7608 104.978C82.7274 105.526 81.8157 106.073 80.8431 106.499C78.0471 107.777 75.1294 108.811 72.0294 108.507C71.4216 108.385 70.9961 109.115 71.4216 109.541Z" fill="black"/>
    <path d="M89.4743 88.7349C90.9331 88.6741 92.0273 87.4574 91.9057 85.9973L91.8449 84.2939C91.7841 82.8339 90.5684 81.7388 89.1096 81.8605C87.6508 81.9213 86.5567 83.138 86.6782 84.5981L86.739 86.3015C86.7998 87.7007 88.0155 88.7958 89.4743 88.7349Z" fill="black"/>
    <path d="M63.8844 89.6475C65.2217 89.5867 66.255 88.4308 66.1942 87.0924L66.1334 85.5107C66.0727 84.1723 64.9178 83.1381 63.5805 83.199C62.2433 83.2598 61.2099 84.4157 61.2707 85.7541L61.3315 87.3358C61.3923 88.6742 62.5472 89.7084 63.8844 89.6475Z" fill="black"/>
    <path d="M84.0038 85.4498C86.0097 84.1114 88.198 83.1989 90.6293 83.6856C91.4195 83.8072 92.2097 84.0506 92.696 84.5981C92.8783 84.8414 93.3038 84.7806 93.3038 84.4156C93.243 83.1989 92.2097 82.408 91.2372 81.9213C89.3529 80.9479 86.7391 81.1305 85.0372 82.408C84.4293 82.773 82.3627 85.0239 83.4568 85.5106C83.6999 85.6323 83.8215 85.5715 84.0038 85.4498Z" fill="black"/>
    <path d="M66.6195 85.754C66.6195 83.1989 63.4587 82.2864 61.5136 83.1989C60.4195 83.6856 59.6293 84.659 59.3254 85.8149C59.2038 86.1799 59.7509 86.4841 59.994 86.1799C61.0273 84.9632 62.7901 84.3548 64.1881 85.0848C64.6136 85.3282 64.6744 85.5107 64.796 85.754C64.796 86.9707 66.5587 86.9099 66.6195 85.754Z" fill="black"/>
    <path d="M81.0861 75.4119C79.8097 75.8378 78.5332 74.6819 78.7764 73.2827C78.8979 72.5526 79.2018 71.8226 79.8097 71.2751C81.6332 69.6325 89.1705 68.1725 93.7293 70.3017C97.741 72.2485 86.9214 73.4652 81.0861 75.4119Z" fill="black"/>
    <path d="M62.9114 76.3853C63.9448 76.7504 65.0389 75.6553 64.8565 74.3778C64.7957 73.7086 64.5526 73.0394 64.0663 72.5527C62.6075 71.0926 57.6232 69.9368 54.4624 72.1877C51.7271 74.0736 58.1703 74.6211 62.9114 76.3853Z" fill="black"/>
    <path d="M49.4178 50.8343C48.2629 47.4883 48.7491 43.2298 52.7001 37.8763C66.1335 19.7472 109.412 26.8042 109.412 26.8042C109.412 26.8042 104.853 28.0209 99.6864 30.5151C114.275 29.2376 124.669 32.4011 133.969 31.4277C133.969 31.4277 129.775 36.2945 120.171 40.2489C129.592 43.7165 137.19 51.5035 143.877 68.9025C143.877 68.9025 139.318 66.0432 131.841 63.4881C136.157 79.4879 130.261 91.655 125.884 99.2595C123.271 104.005 121.812 106.134 119.928 109.48C117.314 114.164 115.855 118.97 115.855 118.97C115.247 108.142 116.706 104.735 116.706 104.735C131.902 98.8945 129.167 81.9213 121.751 80.948C113.971 79.9746 111.539 86.9099 111.114 88.6133C109.655 86.9099 110.992 80.4004 110.749 73.7693C109.655 91.29 99.9903 108.689 99.9903 108.689C99.9903 108.689 102.422 69.2675 93.0609 61.2372C92.8786 61.0547 92.6354 60.8722 92.4531 60.7505C94.459 72.1876 89.3531 77.2978 89.3531 77.2978C88.9884 66.0432 86.2531 60.6897 82.7884 58.5604C79.8099 59.4729 76.7099 60.568 73.306 61.4197C71.4217 61.9064 69.4158 62.3322 67.2884 62.6364C66.9237 62.6972 66.5589 62.6972 66.1942 62.6972C62.2433 62.6972 58.4746 60.0813 55.6178 60.568C54.6452 60.7505 53.9158 61.4805 53.6119 62.4539C53.3688 63.3664 53.1256 64.279 52.8825 65.2523C51.9099 69.5717 49.6609 104.248 49.2962 101.024C48.1413 92.1417 27.1099 62.5147 49.4178 50.8343Z" fill="black"/>
    <path d="M79.6269 96.2785C82.423 96.3394 91.0544 96.4002 93.7289 96.4611C98.3485 96.5219 101.813 92.5067 101.388 87.9441C101.327 86.4232 101.388 84.2939 101.327 82.773C101.205 78.8187 97.6799 75.4727 93.7289 75.5944L83.4564 75.7161C82.6662 75.7161 80.4171 75.7769 79.6269 75.7769C76.3446 75.7161 73.2446 78.1495 72.5152 81.3738C72.272 82.2863 72.3328 83.2597 72.3328 84.0506V89.2216C72.3936 93.0543 75.7975 96.3394 79.6269 96.2785ZM79.6269 94.9402C76.4662 95.0618 73.5485 92.3242 73.4877 89.1608C73.4269 87.5182 73.4877 85.754 73.4877 84.0506C73.123 80.3396 75.9191 76.9328 79.6877 77.0545C82.3015 77.1153 91.0544 77.1761 93.7897 77.237C97.072 77.237 99.8681 80.2179 99.625 83.5031C99.625 83.9289 99.625 85.0239 99.625 85.4498C99.5642 86.7882 99.7466 89.0999 99.4426 90.3166C98.8348 92.8717 96.4034 94.8185 93.7897 94.8185H92.5132C90.7505 94.8185 81.4505 94.9402 79.6269 94.9402Z" fill="black"/>
    <path d="M55.1311 77.3587L59.9331 77.4195C61.2703 77.4804 62.8507 77.237 64.0056 78.0279C65.0998 78.7579 65.586 80.0963 65.5252 81.3739C65.5252 82.9556 65.5252 84.5981 65.586 86.1799L65.6468 85.9365C64.7958 88.9175 63.6409 91.7768 61.8782 94.271L62.486 93.906C61.9998 94.0277 61.1488 94.0277 60.6625 94.0277C58.839 94.0885 56.7115 94.2102 54.888 94.2102C53.186 94.2102 51.5449 92.9326 51.1801 91.2292C51.0586 90.7426 51.0586 89.8909 51.0586 89.4042C51.0586 86.7882 50.9978 84.2331 51.1194 81.6172C50.9978 79.3054 52.7605 77.237 55.1311 77.3587ZM55.1311 75.5336C51.9096 75.5336 49.6605 78.6362 50.2076 81.678C50.3292 84.294 50.2684 86.8491 50.2684 89.465C49.9645 92.5068 51.788 95.2444 54.9488 95.4877C56.286 95.5486 57.5625 95.5486 58.839 95.6094C59.5076 95.6094 61.1488 95.7311 61.7566 95.7311C62.0605 95.7919 62.5468 95.7311 62.8507 95.7311C63.0939 95.7311 63.337 95.5486 63.4586 95.3661C65.3429 92.5676 66.6801 89.465 67.4703 86.2407C67.4703 84.1723 67.6527 82.1039 67.4703 80.0355C67.1056 77.602 64.9174 75.5336 62.4252 75.4728C60.7233 75.4119 56.8331 75.5336 55.1311 75.5336Z" fill="black"/>
    <path d="M73.0018 81.1305C71.3606 80.4005 69.5371 80.0963 67.7135 80.218C67.1057 80.2788 66.4978 80.4613 65.9508 80.948L65.1606 81.6172C64.3704 82.2864 65.3429 83.4423 66.1331 82.7731C67.1057 81.9214 68.2606 82.043 69.4155 82.1039C70.5704 82.2256 71.6645 82.4689 72.7586 82.8947C73.792 83.3206 74.4606 81.7997 73.488 81.313L73.0018 81.1305Z" fill="black"/>
    <path d="M100.355 83.3206C100.78 84.2939 101.266 84.4156 102.057 84.3548L103.819 84.4156C107.345 84.4156 110.931 84.3548 114.457 83.8072C115.672 83.7464 115.733 82.043 114.517 81.9822L100.416 81.4955C99.99 81.4955 99.6861 81.9213 99.8684 82.2863L100.355 83.3206Z" fill="black"/>
    <path d="M99.9902 100.78C98.2883 99.8678 96.6471 98.8945 94.7628 98.4078C94.5804 98.4078 94.4589 98.3469 94.0942 98.4686C92.8177 99.442 96.5255 101.875 97.1942 102.484C97.0118 102.24 97.0726 101.815 97.3765 101.693C97.4373 101.693 97.4373 101.632 97.4981 101.632C97.6196 101.632 97.6197 101.632 97.6197 101.632C96.1 101.085 94.5804 100.476 93.1216 99.7462C92.2706 99.3812 91.1157 98.5903 90.204 98.5295C89.8393 98.5295 89.4138 98.8945 89.4745 99.2595C89.5353 99.7462 89.6569 99.9287 89.7785 100.233C89.9 100.476 90.1432 100.841 90.204 101.085C90.204 101.145 90.2647 101.024 90.2647 101.024C90.2647 101.085 89.9 101.085 89.8393 101.024C88.8667 100.902 87.8334 100.537 86.8608 100.172C86.6785 100.111 86.5569 100.355 86.7393 100.476C87.7726 101.145 88.8667 101.875 90.204 101.997C91.0549 102.058 91.4804 101.267 91.1765 100.537C91.0549 100.111 90.751 99.6245 90.6295 99.2595C90.6295 99.3812 90.5079 99.5637 90.3863 99.6245C90.2647 99.6853 90.204 99.6245 90.2647 99.6853C90.8726 99.8678 92.0883 100.537 92.6353 100.78C94.2157 101.51 95.7353 102.18 97.4373 102.666C97.5589 102.666 97.5589 102.727 97.7412 102.666C98.2275 102.605 98.3491 101.997 97.9844 101.693C97.2549 101.085 96.404 100.598 95.7353 99.9895C95.3706 99.6853 94.9451 99.2595 94.702 98.8945C94.702 98.9553 94.6412 99.077 94.5804 99.1378C95.1275 99.1987 96.2216 99.5028 96.8902 99.807C97.8628 100.172 98.8961 100.598 99.8687 101.024C99.9902 101.145 100.173 100.841 99.9902 100.78Z" fill="black"/>
    <path d="M60.6019 100.78C60.0549 100.172 57.7451 97.2519 57.1372 98.7728C57.1372 98.8945 57.1372 99.0161 57.1372 99.077C57.3804 100.294 58.1706 101.328 58.7784 102.362C58.6568 102.058 58.9 101.632 59.2039 101.571C59.3255 101.571 59.3862 101.571 59.447 101.571C59.5078 101.571 59.447 101.571 59.3862 101.51C58.1706 100.72 57.2588 99.7462 56.0431 98.8945C55.8 98.7728 55.496 98.5903 55.1921 98.7728C54.8882 99.0161 54.949 99.3812 55.0706 99.6245C55.1921 99.9287 55.3137 100.172 55.4353 100.476C55.496 100.537 55.5568 100.598 55.6784 100.537C55.7392 100.537 55.7392 100.476 55.7392 100.415C55.7392 100.294 55.7392 99.5028 55.7392 99.3812C55.8 99.2595 55.7392 99.3203 55.7392 99.3812C55.7392 99.442 55.6176 99.5637 55.496 99.5637C55.4353 99.5637 55.3137 99.5637 55.3137 99.5637C56.347 100.78 57.5627 101.936 58.9608 102.727C59.3862 102.91 59.8725 102.545 59.8117 102.058C59.8117 101.997 59.7509 101.875 59.6902 101.815C59.2647 101.206 58.7784 100.598 58.4137 99.9895C58.2313 99.6853 57.9882 99.2595 57.9274 98.9553C57.9274 99.077 57.6843 99.2595 57.6235 99.1986C58.596 99.5637 59.447 100.355 60.298 100.963C60.5411 101.145 60.7235 100.902 60.6019 100.78Z" fill="black"/>
    </svg>
    